<?xml version="1.0" encoding="utf-8"?>
<!-- Generator: Adobe Illustrator 15.1.0, SVG Export Plug-In . SVG Version: 6.00 Build 0)  -->
<!DOCTYPE svg PUBLIC "-//W3C//DTD SVG 1.0//EN" "http://www.w3.org/TR/2001/REC-SVG-20010904/DTD/svg10.dtd">
<svg version="1.0" id="Layer_1" xmlns="http://www.w3.org/2000/svg" xmlns:xlink="http://www.w3.org/1999/xlink" x="0px" y="0px"
	 width="1369px" height="463px" viewBox="0 0 1369 463" enable-background="new 0 0 1369 463" xml:space="preserve">
<g>
	<defs>
		<rect id="SVGID_1_" x="-1" y="1" width="1370" height="463"/>
	</defs>
	<clipPath id="SVGID_2_">
		<use xlink:href="#SVGID_1_"  overflow="visible"/>
	</clipPath>
	<rect x="-1" y="1" clip-path="url(#SVGID_2_)" fill="#848484" width="1370" height="463"/>
	<g clip-path="url(#SVGID_2_)">
		<text transform="matrix(1 0 0 1 99.0098 144.6987)" fill="#9FA1A6" font-family="'bromello'" font-size="89.5434">Desing is much more</text>
	</g>
	<g clip-path="url(#SVGID_2_)">
		<path fill="#9FA1A6" d="M1138,314.688c0,3.034-0.789,6.344-2.908,8.869c-2.126,2.55-5.285,4.323-8.955,4.546l-0.517,0.025
			l-0.719-0.011c-0.454-0.021-0.887-0.058-1.332-0.117c-0.887-0.115-1.758-0.351-2.604-0.658c-1.689-0.629-3.247-1.622-4.536-2.894
			c-2.584-2.565-4.067-6.133-3.888-9.869l0.037-0.521l0.074-0.729c0.063-0.454,0.141-0.884,0.241-1.321
			c0.216-0.864,0.524-1.702,0.905-2.498c0.756-1.597,1.845-3.006,3.148-4.128c2.61-2.272,6.007-3.349,9.318-3.072
			c3.15,0.234,6.222,1.767,8.252,4.052c1.023,1.151,1.778,2.47,2.387,3.858c0.617,1.385,1.095,2.888,1.095,4.438V314.688z
			 M1136,314.658c0-1.236-0.21-2.518-0.661-3.705c-0.457-1.186-1.337-2.226-2.282-3.044c-1.898-1.677-4.406-2.441-6.835-2.181
			c-2.27,0.25-4.43,1.469-5.748,3.158c-0.667,0.848-1.168,1.797-1.478,2.774c-0.152,0.49-0.255,0.992-0.31,1.493
			c-0.032,0.247-0.056,0.506-0.065,0.744l-0.005,0.313l0.196,0.522c0.002-0.149,0.188-0.035,0.188-0.065v0.012l-0.184,0.023
			l-0.088,0.047l-0.037,0.094l-0.008,0.187l0.038,0.37c0.042,0.244,0.087,0.485,0.148,0.724c0.111,0.478,0.267,0.94,0.469,1.384
			c0.39,0.892,0.952,1.703,1.632,2.402c0.68,0.698,1.479,1.284,2.364,1.721c0.441,0.226,0.907,0.396,1.387,0.552
			c0.238,0.072,0.493,0.135,0.731,0.188l0.319,0.064l0.521,0.053c1.909,0.249,4.44-0.273,6.244-1.686
			c1.843-1.402,2.463-3.63,3.463-6.175V314.658z"/>
	</g>
	<g clip-path="url(#SVGID_2_)">
		<path fill="#9FA1A6" d="M1073.204,306.172c-1.155-0.77-2.274-2.015-2.883-3.454c-0.637-1.439-0.858-2.966-0.904-4.388
			c-0.07-1.488,0.213-3.085,0.744-4.508c0.559-1.434,1.388-2.758,2.427-3.885c2.083-2.255,5.057-3.641,8.077-3.785
			c3.01-0.161,6.037,0.92,8.171,2.886l-1.223,1.584c-2.042-1.277-4.431-1.773-6.685-1.447c-2.248,0.294-4.326,1.42-5.789,3.086
			c-1.482,1.662-2.277,3.827-2.367,6.058c-0.037,1.212,0.009,2.354,0.277,3.403c0.275,1.058,0.764,2.004,1.549,3.017
			L1073.204,306.172z"/>
	</g>
	<path clip-path="url(#SVGID_2_)" fill="none" stroke="#9FA1A6" stroke-width="2" stroke-miterlimit="10" d="M1071.094,311.016
		c7.41-17.895,28.616-32.418,51.205-32.418c27.186,0,49.546,18.477,52.235,42.151"/>
	<path clip-path="url(#SVGID_2_)" fill="none" stroke="#9FA1A6" stroke-width="2" stroke-miterlimit="10" d="M1128.073,372.223
		c-1.896,0.186-3.823,0.281-5.774,0.281c-16.113,0-30.532-6.49-40.163-16.708"/>
	<g clip-path="url(#SVGID_2_)">
		<path fill="#9FA1A6" d="M1274.529,323.256c-0.008,0.039-0.011,0.079-0.02,0.121c-0.059,0.269-0.122,0.506-0.212,0.754
			c-0.171,0.489-0.407,0.959-0.696,1.387c-0.578,0.86-1.352,1.539-2.17,2.056c-1.651,1.034-3.451,1.536-5.223,1.877
			c-1.78,0.329-3.563,0.6-5.338,0.635c-1.782,0.027-3.527-0.085-5.328-0.085h-0.006l-0.232-0.162l-0.21-0.208
			c-8.905-5.917-18.939-10.129-29.386-12.252c-10.444-2.132-21.283-2.225-31.743-0.352c-10.465,1.867-20.546,5.777-29.519,11.447
			c-8.978,5.66-16.848,13.051-23.053,21.641c-6.228,8.573-10.804,18.336-13.35,28.614c-2.56,10.272-3.105,21.042-1.654,31.524
			c1.447,10.484,4.945,20.673,10.24,29.83c5.281,9.164,12.31,17.323,20.625,23.87c8.306,6.557,17.88,11.503,28.045,14.452
			c10.163,2.965,20.896,3.921,31.44,2.879c21.111-2.014,41.217-12.59,54.954-28.793c6.891-8.067,12.223-17.472,15.58-27.55
			c1.682-5.037,2.874-10.239,3.561-15.51c0.344-2.635,0.556-5.288,0.649-7.945c0.085-2.615,0.049-5.417,0.263-8.151
			c0.72-10.954,3.691-21.896,9.358-31.387c2.816-4.741,6.269-9.103,10.241-12.919c1.987-1.907,4.104-3.68,6.339-5.292
			c2.255-1.608,4.547-3.069,7.142-4.276l-0.563,1.187l-0.002-0.007c-1.392-4.957-3.608-9.727-7.024-13.5
			c-3.387-3.792-7.979-6.377-12.947-7.537c-4.973-1.19-10.223-1.128-15.334-0.372
			C1284.025,319.98,1279.107,321.354,1274.529,323.256z M1273.217,321.624c4.987-2.124,10.132-3.556,15.447-4.371
			c5.296-0.781,10.788-0.861,16.096,0.406c2.645,0.633,5.225,1.62,7.6,2.989c2.374,1.369,4.531,3.12,6.363,5.151
			c3.687,4.076,6.017,9.14,7.467,14.3l0.002,0.008l0.238,0.803l-0.802,0.385c-2.299,1.102-4.582,2.576-6.704,4.138
			c-2.133,1.577-4.153,3.311-6.046,5.172c-3.784,3.724-7.056,7.962-9.709,12.554c-5.336,9.192-8.073,19.741-8.643,30.35
			c-0.176,2.664-0.106,5.275-0.161,8.067c-0.071,2.748-0.277,5.495-0.613,8.226c-0.673,5.461-1.872,10.86-3.58,16.096
			c-3.411,10.475-8.879,20.276-15.982,28.709c-7.097,8.438-15.823,15.511-25.574,20.693c-9.755,5.178-20.528,8.427-31.518,9.536
			c-10.981,1.111-22.191,0.142-32.811-2.931c-10.623-3.058-20.637-8.201-29.328-15.032c-8.693-6.825-16.088-15.317-21.59-24.912
			c-5.51-9.59-9.137-20.254-10.618-31.208c-1.484-10.951-0.883-22.178,1.817-32.896c2.692-10.716,7.48-20.898,14.015-29.797
			c6.54-8.895,14.79-16.514,24.165-22.314c9.367-5.811,19.861-9.784,30.713-11.627c10.853-1.85,22.038-1.546,32.763,0.794
			c10.727,2.348,20.965,6.928,29.99,13.121l-0.441-0.033h0.005c1.647,0,3.374,0.106,5.058,0.078c1.69-0.032,3.377-0.227,5.008-0.529
			c1.621-0.307,3.22-0.813,4.515-1.631c1.312-0.821,2.15-1.991,2.284-3.498l0.049-0.564L1273.217,321.624z"/>
	</g>
	<g clip-path="url(#SVGID_2_)">
		<g>
			<path fill="#9FA1A6" d="M1205.611,435.753c-6.224-0.146-12.566-1.505-18.261-4.084c-5.721-2.559-10.881-6.257-15.106-10.777
				c-4.236-4.511-7.54-9.834-9.717-15.547c-2.172-5.722-3.211-11.802-3.086-17.879c0.182-12.082,5.234-23.946,13.724-32.473
				c8.45-8.579,20.307-13.735,32.508-13.902c6.035-0.142,12.18,0.952,17.892,3.152c5.722,2.2,11.022,5.559,15.515,9.814
				c9.011,8.494,14.64,20.72,14.817,33.468c0.356,12.552-4.71,25.43-13.736,34.465c-4.473,4.562-9.953,8.122-15.88,10.458
				c-5.936,2.328-12.316,3.442-18.627,3.305H1205.611z M1205.653,429.079c5.451-0.134,10.833-1.341,15.756-3.538
				c4.938-2.173,9.409-5.292,13.253-9.05c3.797-3.799,6.971-8.263,9.121-13.222c2.151-4.971,3.354-10.289,3.494-15.828
				c0.123-5.368-0.792-10.922-2.749-16.053c-1.957-5.148-4.958-9.936-8.784-13.995c-3.823-4.063-8.475-7.385-13.617-9.693
				c-5.147-2.325-10.764-3.554-16.491-3.691c-5.658-0.13-11.409,0.935-16.722,3.048c-5.327,2.112-10.191,5.374-14.285,9.4
				c-4.113,4.021-7.338,8.927-9.529,14.231c-2.165,5.328-3.226,11.062-3.1,16.811c0.069,2.825,0.415,5.692,1.036,8.46
				c0.638,2.771,1.554,5.469,2.72,8.044c2.333,5.152,5.71,9.781,9.791,13.586c4.091,3.798,8.883,6.78,14.026,8.731
				c5.165,1.946,10.584,2.908,16.122,2.759H1205.653z"/>
		</g>
	</g>
	
		<circle clip-path="url(#SVGID_2_)" fill="none" stroke="#9FA1A6" stroke-width="2" stroke-miterlimit="10" cx="1205.653" cy="390.509" r="54.199"/>
	<g clip-path="url(#SVGID_2_)">
		<path fill="#9FA1A6" d="M1201.631,412c-4.219,0-8.602-0.894-12.538-2.601c-3.96-1.699-7.526-4.242-10.483-7.315
			c-2.955-3.085-5.225-6.784-6.722-10.731c-1.486-3.969-2.134-8.163-1.973-12.368c0.292-8.275,4.012-16.3,9.91-21.824
			c5.852-5.612,13.835-8.747,21.862-8.718c7.976-0.028,15.996,3.105,21.837,8.718c5.897,5.549,9.618,13.492,9.909,21.878
			c0.16,4.095-0.486,8.366-1.973,12.311c-1.498,3.946-3.768,7.642-6.722,10.726c-2.958,3.074-6.524,5.626-10.484,7.325
			c-3.956,1.707-8.276,2.601-12.581,2.601H1201.631z M1201.674,405c6.865,0,13.699-2.534,18.75-7.337
			c5.089-4.754,8.325-11.479,8.627-18.729c0.158-3.533-0.375-7.196-1.64-10.607c-1.275-3.413-3.22-6.611-5.771-9.293
			c-2.555-2.671-5.638-4.872-9.063-6.351c-3.428-1.485-7.146-2.233-10.914-2.244c-3.717,0.011-7.473,0.763-10.889,2.248
			c-3.426,1.478-6.51,3.686-9.063,6.356c-2.552,2.683-4.496,5.894-5.772,9.307c-1.265,3.437-1.798,7.044-1.64,10.688
			c0.302,7.139,3.538,13.992,8.626,18.722c2.516,2.402,5.503,4.166,8.697,5.429c3.214,1.265,6.572,1.813,10.096,1.813H1201.674z"/>
	</g>
	<g clip-path="url(#SVGID_2_)">
		<path fill="#9FA1A6" d="M1212,372.582c1,3.212-0.58,7.07-3.078,9.689c-2.463,2.678-6.172,3.976-9.683,3.753
			c-1.745-0.109-3.461-0.585-4.988-1.378c-1.534-0.802-2.85-1.898-3.908-3.182c-2.119-2.603-3.027-5.868-2.719-9.006
			c0.282-2.978,1.749-5.841,3.876-7.777c2.143-1.976,4.913-3.071,7.851-3.23c2.82-0.168,5.783,0.621,8.287,2.568
			c2.524,1.905,4.362,5.069,4.362,8.484V372.582z M1206,372.504c0-1.806-0.009-3.82-1.19-5.591
			c-1.172-1.759-3.165-3.119-5.565-3.263c-1.104-0.073-2.309,0.11-3.371,0.579c-1.075,0.463-2.041,1.154-2.814,2.021
			c-1.579,1.739-2.261,4.055-1.954,6.297c0.283,2.083,1.518,3.997,3.104,5.07c1.583,1.127,3.444,1.479,5.114,1.271
			c1.71-0.198,2.989-1.048,4.203-2.076c1.206-1.057,2.474-2.378,2.474-4.386V372.504z"/>
	</g>
	<path clip-path="url(#SVGID_2_)" fill="none" stroke="#9FA1A6" stroke-width="2" stroke-miterlimit="10" d="M1104.299,324.147
		c0,0-26.618-4.256-27.874-15.632c0,0-20.604,10.586-32.213,9.214"/>
	<path clip-path="url(#SVGID_2_)" fill="none" stroke="#9FA1A6" stroke-width="2" stroke-miterlimit="10" d="M1044.212,317.729
		c0,0-6.199,4.466,1.22,13.915c0,0,19.995,13.173,26.991,10.563c0,0,28.077-2.507,32.077-12.587v-5.474l-32.037,6.956
		C1072.463,331.104,1055.395,326.567,1044.212,317.729z"/>
	<path clip-path="url(#SVGID_2_)" fill="none" stroke="#9FA1A6" stroke-width="2" stroke-miterlimit="10" d="M1052.527,355.313
		c0,0,16.781,5.455,25.219,1.912c0,0,23.754-6.522,27.754-15.018l-1-10.896c0,0-6.783,16.071-32.357,18.131
		c0,0-22.569-3.065-26.229-13.131C1045.914,336.311,1044.212,352.688,1052.527,355.313z"/>
	<g clip-path="url(#SVGID_2_)">
		<path fill="#9FA1A6" d="M823,314.688c0,3.034-0.789,6.344-2.908,8.869c-2.126,2.55-5.285,4.323-8.955,4.546l-0.517,0.025
			l-0.719-0.011c-0.454-0.021-0.887-0.058-1.332-0.117c-0.887-0.115-1.758-0.351-2.604-0.658c-1.689-0.629-3.247-1.622-4.536-2.894
			c-2.584-2.565-4.067-6.133-3.888-9.869l0.037-0.521l0.074-0.729c0.063-0.454,0.141-0.884,0.241-1.321
			c0.216-0.864,0.524-1.702,0.905-2.498c0.756-1.597,1.845-3.006,3.148-4.128c2.61-2.272,6.007-3.349,9.318-3.072
			c3.15,0.234,6.222,1.767,8.252,4.052c1.023,1.151,1.778,2.47,2.387,3.858c0.617,1.385,1.095,2.888,1.095,4.438V314.688z
			 M821,314.658c0-1.236-0.21-2.518-0.661-3.705c-0.457-1.186-1.337-2.226-2.282-3.044c-1.898-1.677-4.406-2.441-6.835-2.181
			c-2.27,0.25-4.43,1.469-5.748,3.158c-0.667,0.848-1.168,1.797-1.478,2.774c-0.152,0.49-0.255,0.992-0.31,1.493
			c-0.032,0.247-0.056,0.506-0.065,0.744l-0.005,0.313l0.196,0.522c0.002-0.149,0.188-0.035,0.188-0.065v0.012l-0.184,0.023
			l-0.088,0.047l-0.037,0.094l-0.008,0.187l0.038,0.37c0.042,0.244,0.087,0.485,0.148,0.724c0.111,0.478,0.267,0.94,0.469,1.384
			c0.39,0.892,0.952,1.703,1.632,2.402c0.68,0.698,1.479,1.284,2.364,1.721c0.441,0.226,0.907,0.396,1.387,0.552
			c0.238,0.072,0.493,0.135,0.731,0.188l0.319,0.064l0.521,0.053c1.909,0.249,4.44-0.273,6.244-1.686
			c1.843-1.402,2.463-3.63,3.463-6.175V314.658z"/>
	</g>
	<g clip-path="url(#SVGID_2_)">
		<path fill="#9FA1A6" d="M758.204,306.172c-1.155-0.77-2.274-2.015-2.883-3.454c-0.637-1.439-0.858-2.966-0.904-4.388
			c-0.07-1.488,0.213-3.085,0.744-4.508c0.559-1.434,1.388-2.758,2.427-3.885c2.083-2.255,5.057-3.641,8.077-3.785
			c3.01-0.161,6.037,0.92,8.171,2.886l-1.223,1.584c-2.042-1.277-4.431-1.773-6.685-1.447c-2.248,0.294-4.326,1.42-5.789,3.086
			c-1.482,1.662-2.277,3.827-2.367,6.058c-0.037,1.212,0.009,2.354,0.277,3.403c0.275,1.058,0.764,2.004,1.549,3.017
			L758.204,306.172z"/>
	</g>
	<path clip-path="url(#SVGID_2_)" fill="none" stroke="#9FA1A6" stroke-width="2" stroke-miterlimit="10" d="M756.094,311.016
		c7.41-17.895,28.616-32.418,51.205-32.418c27.186,0,49.546,18.477,52.235,42.151"/>
	<path clip-path="url(#SVGID_2_)" fill="none" stroke="#9FA1A6" stroke-width="2" stroke-miterlimit="10" d="M813.073,372.223
		c-1.896,0.186-3.823,0.281-5.774,0.281c-16.113,0-30.532-6.49-40.163-16.708"/>
	<g clip-path="url(#SVGID_2_)">
		<path fill="#9FA1A6" d="M959.529,323.256c-0.008,0.039-0.011,0.079-0.02,0.121c-0.059,0.269-0.122,0.506-0.212,0.754
			c-0.171,0.489-0.407,0.959-0.696,1.387c-0.578,0.86-1.352,1.539-2.17,2.056c-1.651,1.034-3.451,1.536-5.223,1.877
			c-1.78,0.329-3.563,0.6-5.338,0.635c-1.782,0.027-3.527-0.085-5.328-0.085h-0.006l-0.232-0.162l-0.21-0.208
			c-8.905-5.917-18.939-10.129-29.386-12.252c-10.444-2.132-21.283-2.225-31.743-0.352c-10.465,1.867-20.546,5.777-29.519,11.447
			c-8.978,5.66-16.848,13.051-23.053,21.641c-6.228,8.573-10.804,18.336-13.35,28.614c-2.56,10.272-3.105,21.042-1.654,31.524
			c1.447,10.484,4.945,20.673,10.24,29.83c5.281,9.164,12.31,17.323,20.625,23.87c8.306,6.557,17.88,11.503,28.045,14.452
			c10.163,2.965,20.896,3.921,31.44,2.879c21.111-2.014,41.217-12.59,54.954-28.793c6.891-8.067,12.223-17.472,15.58-27.55
			c1.682-5.037,2.874-10.239,3.561-15.51c0.344-2.635,0.556-5.288,0.649-7.945c0.085-2.615,0.049-5.417,0.263-8.151
			c0.72-10.954,3.691-21.896,9.358-31.387c2.816-4.741,6.269-9.103,10.241-12.919c1.987-1.907,4.104-3.68,6.339-5.292
			c2.255-1.608,4.547-3.069,7.142-4.276l-0.563,1.187l-0.002-0.007c-1.392-4.957-3.608-9.727-7.024-13.5
			c-3.387-3.792-7.979-6.377-12.947-7.537c-4.973-1.19-10.223-1.128-15.334-0.372C969.025,319.98,964.107,321.354,959.529,323.256z
			 M958.217,321.624c4.987-2.124,10.132-3.556,15.447-4.371c5.296-0.781,10.788-0.861,16.096,0.406
			c2.645,0.633,5.225,1.62,7.6,2.989c2.374,1.369,4.531,3.12,6.363,5.151c3.687,4.076,6.017,9.14,7.467,14.3l0.002,0.008
			l0.238,0.803l-0.802,0.385c-2.299,1.102-4.582,2.576-6.704,4.138c-2.133,1.577-4.153,3.311-6.046,5.172
			c-3.784,3.724-7.056,7.962-9.709,12.554c-5.336,9.192-8.073,19.741-8.643,30.35c-0.176,2.664-0.106,5.275-0.161,8.067
			c-0.071,2.748-0.277,5.495-0.613,8.226c-0.673,5.461-1.872,10.86-3.58,16.096c-3.411,10.475-8.879,20.276-15.982,28.709
			c-7.097,8.438-15.823,15.511-25.574,20.693c-9.755,5.178-20.528,8.427-31.518,9.536c-10.981,1.111-22.191,0.142-32.811-2.931
			c-10.622-3.058-20.637-8.201-29.328-15.032c-8.693-6.825-16.088-15.317-21.59-24.912c-5.51-9.59-9.137-20.254-10.618-31.208
			c-1.484-10.951-0.883-22.178,1.817-32.896c2.692-10.716,7.48-20.898,14.015-29.797c6.54-8.895,14.79-16.514,24.165-22.314
			c9.367-5.811,19.861-9.784,30.713-11.627c10.853-1.85,22.038-1.546,32.763,0.794c10.727,2.348,20.965,6.928,29.99,13.121
			L940.772,328h0.005c1.647,0,3.374,0.106,5.058,0.078c1.69-0.032,3.377-0.227,5.008-0.529c1.621-0.307,3.22-0.813,4.515-1.631
			c1.312-0.821,2.15-1.991,2.284-3.498l0.049-0.564L958.217,321.624z"/>
	</g>
	<g clip-path="url(#SVGID_2_)">
		<g>
			<path fill="#9FA1A6" d="M890.611,435.753c-6.224-0.146-12.566-1.505-18.261-4.084c-5.721-2.559-10.881-6.257-15.106-10.777
				c-4.236-4.511-7.54-9.834-9.717-15.547c-2.172-5.722-3.211-11.802-3.086-17.879c0.181-12.082,5.234-23.946,13.724-32.473
				c8.45-8.579,20.307-13.735,32.508-13.902c6.035-0.142,12.18,0.952,17.892,3.152c5.722,2.2,11.022,5.559,15.515,9.814
				c9.011,8.494,14.64,20.72,14.817,33.468c0.356,12.552-4.71,25.43-13.736,34.465c-4.473,4.562-9.953,8.122-15.88,10.458
				c-5.936,2.328-12.316,3.442-18.627,3.305H890.611z M890.653,429.079c5.451-0.134,10.833-1.341,15.756-3.538
				c4.938-2.173,9.409-5.292,13.253-9.05c3.797-3.799,6.971-8.263,9.121-13.222c2.151-4.971,3.354-10.289,3.494-15.828
				c0.123-5.368-0.792-10.922-2.749-16.053c-1.957-5.148-4.959-9.936-8.784-13.995c-3.823-4.063-8.475-7.385-13.617-9.693
				c-5.147-2.325-10.764-3.554-16.491-3.691c-5.658-0.13-11.409,0.935-16.722,3.048c-5.327,2.112-10.191,5.374-14.285,9.4
				c-4.113,4.021-7.338,8.927-9.529,14.231c-2.165,5.328-3.226,11.062-3.1,16.811c0.069,2.825,0.415,5.692,1.036,8.46
				c0.638,2.771,1.554,5.469,2.72,8.044c2.333,5.152,5.71,9.781,9.791,13.586c4.091,3.798,8.883,6.78,14.026,8.731
				c5.165,1.946,10.584,2.908,16.122,2.759H890.653z"/>
		</g>
	</g>
	
		<circle clip-path="url(#SVGID_2_)" fill="none" stroke="#9FA1A6" stroke-width="2" stroke-miterlimit="10" cx="890.653" cy="390.509" r="54.199"/>
	<g clip-path="url(#SVGID_2_)">
		<path fill="#9FA1A6" d="M886.631,412c-4.219,0-8.602-0.894-12.538-2.601c-3.96-1.699-7.526-4.242-10.483-7.315
			c-2.955-3.085-5.225-6.784-6.722-10.731c-1.486-3.969-2.133-8.163-1.973-12.368c0.292-8.275,4.012-16.3,9.91-21.824
			c5.852-5.612,13.836-8.747,21.862-8.718c7.976-0.028,15.996,3.105,21.837,8.718c5.897,5.549,9.618,13.492,9.909,21.878
			c0.16,4.095-0.486,8.366-1.973,12.311c-1.498,3.946-3.768,7.642-6.722,10.726c-2.958,3.074-6.524,5.626-10.484,7.325
			c-3.956,1.707-8.276,2.601-12.581,2.601H886.631z M886.674,405c6.865,0,13.699-2.534,18.75-7.337
			c5.089-4.754,8.325-11.479,8.627-18.729c0.158-3.533-0.375-7.196-1.64-10.607c-1.275-3.413-3.22-6.611-5.771-9.293
			c-2.555-2.671-5.638-4.872-9.063-6.351c-3.428-1.485-7.146-2.233-10.914-2.244c-3.717,0.011-7.473,0.763-10.889,2.248
			c-3.426,1.478-6.51,3.686-9.063,6.356c-2.552,2.683-4.496,5.894-5.772,9.307c-1.265,3.437-1.798,7.044-1.64,10.688
			c0.302,7.139,3.538,13.992,8.626,18.722c2.516,2.402,5.503,4.166,8.697,5.429c3.214,1.265,6.572,1.813,10.096,1.813H886.674z"/>
	</g>
	<g clip-path="url(#SVGID_2_)">
		<path fill="#9FA1A6" d="M897,372.582c1,3.212-0.578,7.07-3.078,9.689c-2.463,2.678-6.172,3.976-9.683,3.753
			c-1.745-0.109-3.461-0.585-4.988-1.378c-1.534-0.802-2.85-1.898-3.908-3.182c-2.119-2.603-3.027-5.868-2.719-9.006
			c0.282-2.978,1.749-5.841,3.876-7.777c2.143-1.976,4.913-3.071,7.851-3.23c2.82-0.168,5.783,0.621,8.287,2.568
			c2.524,1.905,4.362,5.069,4.362,8.484V372.582z M891,372.504c0-1.806-0.009-3.82-1.19-5.591c-1.172-1.759-3.165-3.119-5.565-3.263
			c-1.104-0.073-2.309,0.11-3.371,0.579c-1.075,0.463-2.041,1.154-2.814,2.021c-1.579,1.739-2.261,4.055-1.954,6.297
			c0.283,2.083,1.518,3.997,3.104,5.07c1.583,1.127,3.444,1.479,5.114,1.271c1.71-0.198,2.989-1.048,4.203-2.076
			c1.206-1.057,2.474-2.378,2.474-4.386V372.504z"/>
	</g>
	<path clip-path="url(#SVGID_2_)" fill="none" stroke="#9FA1A6" stroke-width="2" stroke-miterlimit="10" d="M789.299,324.147
		c0,0-26.618-4.256-27.874-15.632c0,0-20.604,10.586-32.213,9.214"/>
	<path clip-path="url(#SVGID_2_)" fill="none" stroke="#9FA1A6" stroke-width="2" stroke-miterlimit="10" d="M729.212,317.729
		c0,0-6.199,4.466,1.22,13.915c0,0,19.995,13.173,26.991,10.563c0,0,28.077-2.507,32.077-12.587v-5.474l-32.037,6.956
		C757.463,331.104,740.395,326.567,729.212,317.729z"/>
	<path clip-path="url(#SVGID_2_)" fill="none" stroke="#9FA1A6" stroke-width="2" stroke-miterlimit="10" d="M737.527,355.313
		c0,0,16.781,5.455,25.219,1.912c0,0,23.754-6.522,27.754-15.018l-1-10.896c0,0-6.783,16.071-32.357,18.131
		c0,0-22.569-3.065-26.229-13.131C730.914,336.311,729.212,352.688,737.527,355.313z"/>
	<g clip-path="url(#SVGID_2_)">
		<polygon fill="#9FA1A6" points="1046.052,333.782 1054.155,335.76 1054.046,337.756 1045.776,338.839 		"/>
	</g>
	<path clip-path="url(#SVGID_2_)" fill="none" stroke="#9FA1A6" stroke-width="2" stroke-miterlimit="10" d="M-1,464
		c0,0,94.12-98.838,271.111-49.919c0,0,299.986,67.496,430.479,16.499c0,0,125.993-70.496,377.98,10.5c0,0,178.879,59.996,290.43-9
		s120.55-28.498,120.55-28.498"/>
	<g clip-path="url(#SVGID_2_)">
		<text transform="matrix(1 0 0 1 398.0112 232.5)" fill="#9FA1A6" font-family="'bromello'" font-size="89.5434"> than lines and codes</text>
	</g>
</g>
</svg>
