<?xml version="1.0" encoding="utf-8"?>
<!-- Generator: Adobe Illustrator 15.1.0, SVG Export Plug-In . SVG Version: 6.00 Build 0)  -->
<!DOCTYPE svg PUBLIC "-//W3C//DTD SVG 1.0//EN" "http://www.w3.org/TR/2001/REC-SVG-20010904/DTD/svg10.dtd">
<svg version="1.0" id="Layer_1" xmlns="http://www.w3.org/2000/svg" xmlns:xlink="http://www.w3.org/1999/xlink" x="0px" y="0px"
	 width="241.558px" height="135.142px" viewBox="-96.566 11.699 241.558 135.142"
	 enable-background="new -96.566 11.699 241.558 135.142" xml:space="preserve">
<g>
	<path fill="#FFFFFF" d="M60.02,129.393c-1.304-0.433-2.352-1.041-3.145-1.834c-0.793-0.792-1.19-1.751-1.19-2.871
		c0-1.094,0.412-2.061,1.233-2.889c0.821-0.831,1.843-1.243,3.065-1.243c1.206,0,2.236,0.421,3.099,1.275
		c0.446,0.437,0.796,1.052,1.05,1.846l-2.048,0.795c-0.254-0.682-0.482-1.123-0.685-1.327c-0.412-0.421-0.887-0.631-1.416-0.631
		c-0.521,0-0.989,0.206-1.397,0.612c-0.409,0.41-0.61,0.932-0.61,1.562c0,0.623,0.209,1.154,0.63,1.594
		c0.439,0.421,1.036,0.809,1.796,1.164c1.45,0.471,2.662,1.196,3.641,2.174c1.12,1.112,1.681,2.427,1.681,3.945
		c0,1.516-0.554,2.827-1.66,3.937c-1.111,1.107-2.47,1.663-4.079,1.663c-1.617,0-2.987-0.569-4.106-1.708
		c-0.878-0.868-1.417-1.993-1.621-3.374l2.199-0.796c0.138,1.322,0.511,2.285,1.126,2.893c0.675,0.675,1.476,1.013,2.402,1.013
		c0.936,0,1.749-0.348,2.447-1.044c0.696-0.695,1.042-1.556,1.042-2.583c0-1.031-0.339-1.885-1.025-2.568
		C61.759,130.313,60.95,129.779,60.02,129.393z"/>
	<path fill="#FFFFFF" d="M67.583,127.405h2.288v1.327c0.9-1.508,2.272-2.262,4.109-2.262s3.385,0.629,4.65,1.89
		c1.264,1.261,1.899,2.764,1.899,4.506c0,1.728-0.636,3.228-1.899,4.494c-1.266,1.271-2.813,1.904-4.65,1.904
		s-3.209-0.763-4.109-2.289v6.007h-2.288V127.405z M69.871,131.894v1.947c0.152,0.817,0.545,1.539,1.176,2.162
		c0.827,0.817,1.803,1.227,2.934,1.227c1.129,0,2.113-0.421,2.951-1.258c0.839-0.839,1.258-1.873,1.258-3.105
		c0-1.236-0.419-2.279-1.258-3.121c-0.838-0.844-1.822-1.265-2.951-1.265c-1.131,0-2.123,0.43-2.985,1.289
		C70.398,130.37,70.023,131.076,69.871,131.894z"/>
	<path fill="#FFFFFF" d="M95.18,138.962h-2.286v-2.024c-0.901,1.553-2.276,2.327-4.121,2.327c-1.83,0-3.378-0.633-4.649-1.904
		c-1.268-1.267-1.899-2.767-1.899-4.494c0-1.742,0.632-3.247,1.899-4.513c1.271-1.264,2.819-1.896,4.649-1.896
		c1.845,0,3.22,0.768,4.121,2.303v-1.354h2.286V138.962z M92.894,133.778v-1.846c-0.161-0.837-0.545-1.554-1.152-2.163
		c-0.85-0.859-1.84-1.289-2.969-1.289c-1.14,0-2.127,0.421-2.96,1.265c-0.834,0.842-1.252,1.885-1.252,3.121
		c0,1.232,0.418,2.266,1.252,3.098c0.833,0.836,1.82,1.253,2.96,1.253c1.129,0,2.119-0.426,2.969-1.278
		C92.349,135.332,92.733,134.612,92.894,133.778z"/>
	<path fill="#FFFFFF" d="M99.848,130.339v8.623h-2.289v-11.557h2.289c0.386-0.421,1.188-0.631,2.399-0.631
		c1.459,0,2.634,0.444,3.528,1.339c0.894,0.895,1.348,1.985,1.365,3.275v7.573h-2.276v-7.473c0-0.783-0.265-1.437-0.796-1.954
		c-0.531-0.519-1.137-0.775-1.821-0.775c-0.675,0-1.267,0.244-1.78,0.732C100.173,129.787,99.963,130.068,99.848,130.339z"/>
	<path fill="#FFFFFF" d="M112.178,124.111c0.307,0.3,0.463,0.636,0.463,1.006c0,0.39-0.156,0.731-0.463,1.031
		c-0.307,0.299-0.692,0.445-1.159,0.445c-0.478,0-0.871-0.146-1.172-0.445c-0.305-0.3-0.458-0.642-0.458-1.031
		c0-0.37,0.153-0.706,0.458-1.006c0.301-0.297,0.694-0.449,1.172-0.449C111.486,123.662,111.872,123.814,112.178,124.111z
		 M112.148,127.405v11.557h-2.276v-11.557H112.148z"/>
	<path fill="#FFFFFF" d="M117.863,133.195c-0.86-0.472-1.451-0.868-1.771-1.188c-0.625-0.622-0.934-1.34-0.934-2.146
		c0-0.804,0.304-1.509,0.908-2.126c0.608-0.614,1.368-0.922,2.276-0.922c0.911,0,1.644,0.282,2.199,0.847
		c0.573,0.574,0.859,1.201,0.859,1.883v0.353l-2.048,0.837c-0.125-0.952-0.273-1.513-0.438-1.681
		c-0.162-0.167-0.354-0.256-0.573-0.256c-0.219,0-0.427,0.099-0.62,0.294c-0.194,0.191-0.288,0.451-0.288,0.771
		c0,0.318,0.107,0.588,0.328,0.807c0.144,0.153,0.476,0.394,1,0.722c0.949,0.521,1.646,0.998,2.083,1.428
		c0.691,0.71,1.036,1.544,1.036,2.506c0,0.982-0.358,1.838-1.074,2.563c-0.715,0.725-1.613,1.087-2.692,1.087
		s-1.979-0.362-2.7-1.087c-0.72-0.726-1.081-1.63-1.081-2.719l2.277-0.566c0,0.978,0.154,1.622,0.467,1.931
		c0.311,0.314,0.658,0.468,1.037,0.468s0.729-0.153,1.042-0.468c0.318-0.309,0.475-0.716,0.475-1.209
		c0-0.484-0.17-0.888-0.504-1.216C118.925,133.912,118.503,133.609,117.863,133.195z"/>
	<path fill="#FFFFFF" d="M124.019,120.769h2.287v6.637c0.389-0.421,1.189-0.631,2.402-0.631c1.459,0,2.635,0.444,3.529,1.339
		c0.891,0.895,1.347,1.985,1.364,3.275v7.573h-2.276v-7.473c0-0.783-0.267-1.437-0.797-1.954c-0.53-0.519-1.136-0.775-1.82-0.775
		c-0.675,0-1.269,0.244-1.78,0.732c-0.297,0.295-0.504,0.576-0.622,0.847v8.623h-2.287V120.769z"/>
</g>
<path fill="#FFFFFF" d="M-44.431,19.279v17.718c16,1.415,27.733,14.181,27.733,29.681c0,16.446-13.03,29.824-29.474,29.824
	s-29.056-13.378-29.056-29.824c0-15.501,10.796-28.267,27.796-29.681V19.279c-26,1.446-45.284,22.11-45.284,47.399
	c0,26.228,20.963,47.49,47.191,47.49c26.228,0,46.64-21.263,46.64-47.49C1.116,41.39-18.431,20.725-44.431,19.279z"/>
<g>
	<path fill="#FFFFFF" d="M-61.951,74.223v-9.832l-0.881,0.577l-1.301-0.938l3.945-2.879v13.072h2.89v1.538h-7.6v-1.538H-61.951z"/>
	<path fill="#FFFFFF" d="M-44.862,68.827c0,2.168-0.479,3.906-1.439,5.21c-0.96,1.306-2.165,1.959-3.613,1.959
		c-1.458,0-2.667-0.653-3.633-1.959c-0.967-1.304-1.451-3.042-1.451-5.21c0-2.16,0.484-3.893,1.451-5.2
		c0.966-1.305,2.176-1.958,3.633-1.958c1.448,0,2.652,0.653,3.613,1.958C-45.342,64.934-44.862,66.667-44.862,68.827z
		 M-46.665,68.827c0-1.821-0.333-3.206-1.004-4.157c-0.668-0.949-1.42-1.423-2.256-1.423c-0.842,0-1.596,0.474-2.263,1.423
		c-0.665,0.951-0.998,2.335-0.998,4.157c0,1.829,0.333,3.216,0.998,4.162c0.667,0.948,1.421,1.421,2.263,1.421
		c0.836,0,1.588-0.474,2.256-1.421C-46.998,72.043-46.665,70.655-46.665,68.827z"/>
	<path fill="#FFFFFF" d="M-33.747,68.827c0,2.168-0.481,3.906-1.439,5.21c-0.961,1.306-2.166,1.959-3.614,1.959
		c-1.457,0-2.667-0.653-3.633-1.959c-0.967-1.304-1.45-3.042-1.45-5.21c0-2.16,0.483-3.893,1.45-5.2
		c0.966-1.305,2.177-1.958,3.633-1.958c1.448,0,2.653,0.653,3.614,1.958C-34.228,64.934-33.747,66.667-33.747,68.827z
		 M-35.549,68.827c0-1.821-0.335-3.206-1.004-4.157c-0.668-0.949-1.421-1.423-2.257-1.423c-0.842,0-1.597,0.474-2.263,1.423
		c-0.666,0.951-0.999,2.335-0.999,4.157c0,1.829,0.333,3.216,0.999,4.162c0.666,0.948,1.421,1.421,2.263,1.421
		c0.835,0,1.588-0.474,2.257-1.421C-35.884,72.043-35.549,70.655-35.549,68.827z"/>
	<path fill="#FFFFFF" d="M-28.445,65.567c0.46,0.463,0.69,1.004,0.69,1.625c0,0.607-0.23,1.144-0.69,1.612
		c-0.46,0.466-1.04,0.699-1.739,0.699c-0.697,0-1.277-0.233-1.738-0.699c-0.46-0.468-0.689-1.005-0.689-1.612
		c0-0.62,0.229-1.162,0.689-1.625c0.461-0.465,1.041-0.697,1.738-0.697C-29.484,64.871-28.905,65.103-28.445,65.567z
		 M-22.947,64.354l-8.118,11.604l-1.381-0.961l8.119-11.603L-22.947,64.354z M-30.184,66.379c-0.169,0-0.326,0.074-0.469,0.221
		c-0.145,0.146-0.215,0.344-0.215,0.592c0,0.248,0.071,0.445,0.215,0.587c0.143,0.144,0.299,0.216,0.469,0.216
		c0.163,0,0.318-0.074,0.465-0.22c0.146-0.147,0.22-0.342,0.22-0.583c0-0.248-0.074-0.446-0.22-0.592
		C-29.865,66.453-30.021,66.379-30.184,66.379z M-23.47,70.556c0.46,0.461,0.689,1.001,0.689,1.621s-0.229,1.161-0.689,1.62
		c-0.461,0.461-1.037,0.691-1.729,0.691c-0.698,0-1.278-0.23-1.738-0.691c-0.461-0.459-0.69-1-0.69-1.62s0.229-1.16,0.69-1.621
		c0.46-0.459,1.04-0.69,1.738-0.69C-24.507,69.865-23.931,70.096-23.47,70.556z M-25.199,71.364c-0.169,0-0.326,0.074-0.469,0.221
		c-0.144,0.146-0.215,0.345-0.215,0.592c0,0.249,0.071,0.443,0.215,0.587c0.144,0.144,0.3,0.214,0.469,0.214
		c0.164,0,0.32-0.07,0.471-0.214c0.149-0.144,0.225-0.338,0.225-0.587c0-0.248-0.076-0.446-0.225-0.592
		C-24.879,71.438-25.036,71.364-25.199,71.364z"/>
</g>
<path fill="#FFFFFF" d="M98.569,19.279v17.718c14,1.416,26.637,14.181,26.637,29.681c0,16.446-13.578,29.824-30.026,29.824
	c-16.441,0-29.232-13.378-29.232-29.824c0-15.501,10.622-28.267,27.622-29.681V19.279c-27,1.446-45.381,22.11-45.381,47.399
	c0,26.228,20.91,47.49,47.139,47.49c26.229,0,47.713-21.263,47.713-47.49C143.04,41.39,123.569,20.725,98.569,19.279z"/>
<g>
	<path fill="#FFFFFF" d="M78.85,74.223v-9.832l-0.88,0.577l-1.303-0.938l3.946-2.879v13.072h2.89v1.538h-7.6v-1.538H78.85z"/>
	<path fill="#FFFFFF" d="M95.94,68.827c0,2.168-0.481,3.906-1.439,5.21c-0.959,1.306-2.165,1.959-3.615,1.959
		c-1.456,0-2.667-0.653-3.632-1.959c-0.966-1.304-1.448-3.042-1.448-5.21c0-2.16,0.482-3.893,1.448-5.2
		c0.965-1.305,2.176-1.958,3.632-1.958c1.45,0,2.656,0.653,3.615,1.958C95.459,64.934,95.94,66.667,95.94,68.827z M94.137,68.827
		c0-1.821-0.334-3.206-1.004-4.157c-0.669-0.949-1.422-1.423-2.257-1.423c-0.842,0-1.597,0.474-2.261,1.423
		c-0.668,0.951-1.001,2.335-1.001,4.157c0,1.829,0.333,3.216,1.001,4.162c0.664,0.948,1.419,1.421,2.261,1.421
		c0.835,0,1.588-0.474,2.257-1.421C93.803,72.043,94.137,70.655,94.137,68.827z"/>
	<path fill="#FFFFFF" d="M107.053,68.827c0,2.168-0.479,3.906-1.438,5.21c-0.959,1.306-2.165,1.959-3.615,1.959
		c-1.454,0-2.667-0.653-3.633-1.959c-0.966-1.304-1.447-3.042-1.447-5.21c0-2.16,0.481-3.893,1.447-5.2
		c0.966-1.305,2.179-1.958,3.633-1.958c1.45,0,2.656,0.653,3.615,1.958C106.574,64.934,107.053,66.667,107.053,68.827z
		 M105.253,68.827c0-1.821-0.333-3.206-1.004-4.157c-0.67-0.949-1.42-1.423-2.258-1.423c-0.841,0-1.597,0.474-2.261,1.423
		c-0.667,0.951-1,2.335-1,4.157c0,1.829,0.333,3.216,1,4.162c0.664,0.948,1.42,1.421,2.261,1.421c0.838,0,1.588-0.474,2.258-1.421
		C104.92,72.043,105.253,70.655,105.253,68.827z"/>
	<path fill="#FFFFFF" d="M112.356,65.567c0.462,0.463,0.69,1.004,0.69,1.625c0,0.607-0.229,1.144-0.69,1.612
		c-0.46,0.466-1.041,0.699-1.737,0.699c-0.699,0-1.277-0.233-1.739-0.699c-0.46-0.468-0.69-1.005-0.69-1.612
		c0-0.62,0.23-1.162,0.69-1.625c0.462-0.465,1.04-0.697,1.739-0.697C111.315,64.871,111.896,65.103,112.356,65.567z M117.856,64.354
		l-8.12,11.604l-1.381-0.961l8.118-11.603L117.856,64.354z M110.619,66.379c-0.171,0-0.325,0.074-0.471,0.221
		c-0.143,0.146-0.215,0.344-0.215,0.592c0,0.248,0.072,0.445,0.215,0.587c0.146,0.144,0.3,0.216,0.471,0.216
		c0.164,0,0.318-0.074,0.466-0.22c0.145-0.147,0.217-0.342,0.217-0.583c0-0.248-0.072-0.446-0.217-0.592
		C110.937,66.453,110.783,66.379,110.619,66.379z M117.331,70.556c0.462,0.461,0.689,1.001,0.689,1.621s-0.228,1.161-0.689,1.62
		c-0.46,0.461-1.035,0.691-1.729,0.691c-0.697,0-1.277-0.23-1.738-0.691c-0.46-0.459-0.689-1-0.689-1.62s0.229-1.16,0.689-1.621
		c0.461-0.459,1.041-0.69,1.738-0.69C116.296,69.865,116.871,70.096,117.331,70.556z M115.602,71.364
		c-0.17,0-0.324,0.074-0.47,0.221c-0.144,0.146-0.214,0.345-0.214,0.592c0,0.249,0.07,0.443,0.214,0.587
		c0.146,0.144,0.3,0.214,0.47,0.214c0.165,0,0.319-0.07,0.471-0.214c0.15-0.144,0.227-0.338,0.227-0.587
		c0-0.248-0.076-0.446-0.227-0.592C115.922,71.438,115.767,71.364,115.602,71.364z"/>
</g>
<g>
	<path fill="#FFFFFF" d="M-68.81,122.28v1.986h-7.61v6.12h7.61v1.982h-7.61v6.119h7.61v1.985h-9.898V122.28H-68.81z"/>
	<path fill="#FFFFFF" d="M-63.854,131.852v8.622h-2.288v-11.557h2.288c0.388-0.42,1.189-0.632,2.403-0.632
		c1.457,0,2.633,0.446,3.527,1.342c0.894,0.893,1.348,1.985,1.365,3.275v7.571h-2.276v-7.473c0-0.783-0.265-1.435-0.797-1.954
		c-0.53-0.517-1.138-0.773-1.819-0.773c-0.675,0-1.269,0.244-1.783,0.732C-63.53,131.3-63.736,131.581-63.854,131.852z"/>
	<path fill="#FFFFFF" d="M-44.143,138.513c-0.792,1.511-2.112,2.266-3.958,2.266c-1.83,0-3.378-0.635-4.646-1.906
		c-1.268-1.267-1.903-2.764-1.903-4.492c0-1.743,0.635-3.247,1.903-4.507s2.817-1.893,4.646-1.893c1.837,0,3.21,0.765,4.122,2.293
		v-1.356h2.288v8.698c0,1.696-0.611,3.148-1.833,4.363c-1.282,1.288-2.842,1.934-4.679,1.934c-1.837,0-3.384-0.627-4.64-1.884
		c-0.285-0.295-0.649-0.733-1.086-1.315l2.187-0.796c0.295,0.371,0.501,0.606,0.62,0.707c0.817,0.827,1.792,1.239,2.92,1.239
		C-45.817,141.863-44.464,140.746-44.143,138.513z M-43.991,133.404c-0.168-0.814-0.564-1.54-1.188-2.173
		c-0.819-0.826-1.791-1.238-2.921-1.238c-1.137,0-2.124,0.421-2.958,1.264c-0.835,0.844-1.252,1.883-1.252,3.123
		c0,1.23,0.417,2.265,1.252,3.103c0.834,0.839,1.821,1.26,2.958,1.26c1.13,0,2.12-0.427,2.972-1.277
		c0.59-0.589,0.969-1.289,1.138-2.1V133.404z"/>
	<path fill="#FFFFFF" d="M-37.101,122.28v18.193h-2.289V122.28H-37.101z"/>
	<path fill="#FFFFFF" d="M-31.925,125.627c0.308,0.298,0.461,0.633,0.461,1.004c0,0.388-0.154,0.73-0.461,1.032
		c-0.308,0.297-0.693,0.445-1.157,0.445c-0.481,0-0.873-0.148-1.176-0.445c-0.303-0.302-0.455-0.645-0.455-1.032
		c0-0.371,0.152-0.706,0.455-1.004c0.303-0.3,0.694-0.451,1.176-0.451C-32.618,125.176-32.233,125.327-31.925,125.627z
		 M-31.957,128.917v11.557h-2.276v-11.557H-31.957z"/>
	<path fill="#FFFFFF" d="M-26.242,134.709c-0.859-0.47-1.449-0.869-1.77-1.19c-0.624-0.623-0.936-1.338-0.936-2.147
		c0-0.8,0.304-1.508,0.91-2.123c0.608-0.616,1.367-0.925,2.276-0.925c0.911,0,1.644,0.282,2.2,0.849
		c0.573,0.573,0.858,1.2,0.858,1.883v0.354l-2.047,0.835c-0.125-0.953-0.272-1.513-0.437-1.684
		c-0.165-0.167-0.356-0.252-0.575-0.252c-0.219,0-0.425,0.097-0.62,0.291c-0.193,0.193-0.29,0.451-0.29,0.771
		c0,0.321,0.109,0.59,0.328,0.81c0.145,0.153,0.477,0.391,1,0.722c0.952,0.521,1.646,0.996,2.085,1.427
		c0.69,0.707,1.036,1.543,1.036,2.503c0,0.988-0.358,1.843-1.074,2.567c-0.717,0.725-1.614,1.087-2.693,1.087
		c-1.079,0-1.979-0.362-2.699-1.087s-1.081-1.631-1.081-2.719l2.275-0.568c0,0.978,0.156,1.624,0.467,1.934
		c0.313,0.31,0.658,0.467,1.038,0.467c0.378,0,0.728-0.157,1.043-0.467c0.316-0.31,0.473-0.716,0.473-1.214
		c0-0.479-0.167-0.883-0.504-1.212C-25.18,135.423-25.601,135.121-26.242,134.709z"/>
	<path fill="#FFFFFF" d="M-20.086,122.28h2.289v6.637c0.387-0.42,1.188-0.632,2.401-0.632c1.458,0,2.634,0.446,3.528,1.342
		c0.892,0.893,1.349,1.985,1.365,3.275v7.571h-2.276v-7.473c0-0.783-0.265-1.435-0.796-1.954c-0.53-0.517-1.138-0.773-1.821-0.773
		c-0.674,0-1.268,0.244-1.782,0.732c-0.296,0.294-0.502,0.575-0.62,0.846v8.622h-2.289V122.28z"/>
</g>
</svg>
