<?xml version="1.0" encoding="utf-8"?>
<!-- Generator: Adobe Illustrator 15.1.0, SVG Export Plug-In . SVG Version: 6.00 Build 0)  -->
<!DOCTYPE svg PUBLIC "-//W3C//DTD SVG 1.1//EN" "http://www.w3.org/Graphics/SVG/1.1/DTD/svg11.dtd">
<svg version="1.1" id="Layer_1" xmlns="http://www.w3.org/2000/svg" xmlns:xlink="http://www.w3.org/1999/xlink" x="0px" y="0px"
	 width="157.723px" height="71.278px" viewBox="0 0 157.723 71.278" enable-background="new 0 0 157.723 71.278"
	 xml:space="preserve">
<g>
	<path fill="#9FA1A6" d="M23.038,8.137h2.708V33.95H23.58L7.406,13.263V33.95H4.698V8.137h2.166l16.174,20.687V8.137z"/>
	<path fill="#9FA1A6" d="M42.027,8.137L53.364,33.95h-2.925l-3.502-7.979H35.06l-3.502,7.979h-2.924L39.97,8.137H42.027z
		 M45.746,23.299l-4.729-10.794l-4.766,10.794H45.746z"/>
	<path fill="#9FA1A6" d="M49.067,8.137h19.278v2.708h-8.303V33.95h-2.672V10.844h-8.304V8.137z"/>
	<path fill="#9FA1A6" d="M77.479,8.137L88.816,33.95h-2.925l-3.502-7.979H70.512L67.01,33.95h-2.924L75.422,8.137H77.479z
		 M81.198,23.299l-4.729-10.794l-4.766,10.794H81.198z"/>
	<path fill="#9FA1A6" d="M108.78,31.278v2.671H91.704V8.137h2.708v23.142H108.78z"/>
	<path fill="#9FA1A6" d="M118.781,10.844v20.434h4.404v2.671h-11.517v-2.671h4.404V10.844h-4.404V8.137h11.517v2.708H118.781z"/>
	<path fill="#9FA1A6" d="M139.467,8.137l11.337,25.813h-2.925l-3.502-7.979h-11.878l-3.502,7.979h-2.924l11.336-25.813H139.467z
		 M143.186,23.299l-4.729-10.794l-4.766,10.794H143.186z"/>
</g>
<g>
	<path fill="#9FA1A6" d="M9.314,45.143h6.031l-0.065,0.645c-0.314,2.809-2.975,4.743-5.801,4.743c-3.272,0-5.916-2.627-5.916-5.899
		c0-3.255,2.644-5.916,5.916-5.916c2.727,0,5.09,1.884,5.734,4.511h-1.272c-0.611-1.934-2.413-3.289-4.462-3.289
		c-2.595,0-4.693,2.115-4.693,4.693c0,2.594,2.099,4.693,4.693,4.693c1.934,0,3.636-1.173,4.346-2.941H9.314V45.143z"/>
	<path fill="#9FA1A6" d="M22.795,38.714l5.188,11.815h-1.338l-1.604-3.652h-5.437l-1.603,3.652h-1.339l5.188-11.815H22.795z
		 M24.497,45.655l-2.165-4.941l-2.181,4.941H24.497z"/>
	<path fill="#9FA1A6" d="M32.027,45.242l5.966,5.288h-1.834l-5.619-5.007v5.007h-1.239V38.714h4.677
		c1.784,0,3.239,1.471,3.239,3.255c0,1.801-1.455,3.272-3.239,3.272H32.027z M30.54,44.002h3.438c1.107,0,2.016-0.909,2.016-2.033
		c0-1.107-0.908-2.016-2.016-2.016H30.54V44.002z"/>
	<path fill="#9FA1A6" d="M49.327,46.118c-0.661,2.594-3.008,4.429-5.718,4.429c-3.256,0-5.916-2.644-5.916-5.916
		c0-3.255,2.66-5.916,5.916-5.916c2.76,0,5.14,1.917,5.768,4.577h-1.272c-0.595-1.966-2.413-3.354-4.495-3.354
		c-2.595,0-4.693,2.115-4.693,4.693c0,2.594,2.115,4.709,4.693,4.709c2.032,0,3.817-1.322,4.445-3.222H49.327z"/>
	<path fill="#9FA1A6" d="M52.661,39.954v9.354h2.016v1.223h-5.271v-1.223h2.016v-9.354h-2.016v-1.239h5.271v1.239H52.661z"/>
	<path fill="#9FA1A6" d="M62.127,38.714l5.188,11.815h-1.338l-1.604-3.652h-5.437l-1.603,3.652h-1.339l5.188-11.815H62.127z
		 M63.829,45.655l-2.165-4.941l-2.181,4.941H63.829z"/>
	<path fill="#9FA1A6" d="M77.076,45.242l5.966,5.288h-1.834l-5.619-5.007v5.007H74.35V38.714h4.677c1.784,0,3.239,1.471,3.239,3.255
		c0,1.801-1.455,3.272-3.239,3.272H77.076z M75.589,44.002h3.438c1.107,0,2.016-0.909,2.016-2.033c0-1.107-0.908-2.016-2.016-2.016
		h-3.438V44.002z"/>
	<path fill="#9FA1A6" d="M84.36,38.714h7.783v1.239H85.6v4.049h4.776v1.239H85.6v4.049h6.544v1.239H84.36V38.714z"/>
	<path fill="#9FA1A6" d="M102.105,47.274c0,1.801-1.719,3.255-3.817,3.255H97.28c-2.099,0-3.817-1.454-3.817-3.255
		c0-0.017,0-0.033,0-0.066l0.017-0.462h1.289l-0.017,0.529c-0.033,1.107,1.141,2.016,2.528,2.016h1.008
		c1.389,0,2.528-0.909,2.528-2.016c0-1.124-1.14-2.033-2.528-2.033h-0.033c-0.032,0-0.099,0-0.165,0h-0.265
		c-0.677-0.033-1.586-0.116-2.082-0.413c-1.306-0.76-1.934-1.686-1.934-2.859c0-1.785,1.719-3.255,3.817-3.255h0.298
		c2.032,0,3.718,1.355,3.817,3.09l0.033,0.496h-1.289l-0.033-0.446c-0.083-1.074-1.189-1.9-2.528-1.9h-0.298
		c-1.388,0-2.512,0.909-2.512,2.016c0,1.091,1.058,2,2.38,2.033h0.083h0.032h0.496v0.017c0.562,0.016,0.843,0.033,0.859,0.049h0.05
		C100.816,44.283,102.105,45.705,102.105,47.274z"/>
	<path fill="#9FA1A6" d="M102.614,38.714h8.824v1.239h-3.801V50.53h-1.223V39.954h-3.801V38.714z"/>
	<path fill="#9FA1A6" d="M115.484,45.242l5.966,5.288h-1.834l-5.619-5.007v5.007h-1.239V38.714h4.677
		c1.784,0,3.239,1.471,3.239,3.255c0,1.801-1.455,3.272-3.239,3.272H115.484z M113.997,44.002h3.438
		c1.107,0,2.016-0.909,2.016-2.033c0-1.107-0.908-2.016-2.016-2.016h-3.438V44.002z"/>
	<path fill="#9FA1A6" d="M122.769,38.714h7.783v1.239h-6.544v4.049h4.776v1.239h-4.776v4.049h6.544v1.239h-7.783V38.714z"/>
	<path fill="#9FA1A6" d="M139.968,41.97c0,1.801-1.454,3.272-3.256,3.272h-3.603v5.288h-1.239V38.714h4.842
		C138.514,38.714,139.968,40.185,139.968,41.97z M138.729,41.97c0-1.107-0.893-2.016-2.017-2.016h-3.603v4.049h3.603
		C137.836,44.002,138.729,43.093,138.729,41.97z"/>
	<path fill="#9FA1A6" d="M153.003,44.597c0,3.239-2.628,5.867-5.851,5.867c-3.238,0-5.866-2.628-5.866-5.867
		s2.628-5.866,5.866-5.866C150.375,38.731,153.003,41.358,153.003,44.597z M151.796,44.597c0-2.562-2.082-4.644-4.644-4.644
		s-4.644,2.082-4.644,4.644s2.082,4.66,4.644,4.66S151.796,47.159,151.796,44.597z"/>
</g>
<g>
	<path fill="#9FA1A6" d="M7.126,60.036c-0.133,0.037-0.271,0.055-0.417,0.055c-0.085,0-0.16-0.033-0.227-0.1s-0.1-0.142-0.1-0.227
		s0.033-0.16,0.1-0.227c0.066-0.066,0.142-0.1,0.227-0.1c0.133,0,0.271-0.036,0.417-0.108c0.012-0.676,0.042-1.226,0.09-1.648
		c0.109-0.942,0.188-1.509,0.236-1.703c0.229-0.906,0.634-1.382,1.213-1.431c0.302-0.024,0.537,0.079,0.707,0.308
		c0.133,0.169,0.211,0.405,0.235,0.707c0.036,0.507-0.072,1.111-0.326,1.811c-0.254,0.725-0.586,1.329-0.996,1.812
		c-0.157,0.206-0.326,0.375-0.508,0.507c0,1.039,0.049,2.017,0.146,2.934c0.12,1.063,0.302,1.932,0.543,2.608
		c0.266,0.749,0.58,1.208,0.942,1.376c0.615,0.266,1.213-0.103,1.793-1.105c0.41-0.712,0.736-1.545,0.979-2.5
		c-0.024-0.241-0.043-0.477-0.055-0.707c-0.024-0.495-0.03-0.887-0.019-1.177c0-0.253,0.019-0.453,0.055-0.598
		c0.012-0.097,0.036-0.181,0.072-0.253c0.048-0.121,0.133-0.206,0.254-0.254c0.097-0.036,0.192-0.036,0.29,0
		c0.096,0.037,0.169,0.097,0.217,0.181c0.048,0.085,0.078,0.193,0.091,0.326c0,0.048-0.006,0.217-0.019,0.507
		c-0.036,0.845-0.108,1.509-0.217,1.992l-0.019,0.018c0.085,0.797,0.229,1.485,0.435,2.065c0.387,1.099,0.942,1.63,1.667,1.594
		c0.676-0.024,1.207-0.489,1.594-1.395c0.362-0.845,0.592-1.986,0.688-3.423c0.072-1.219,0.054-2.475-0.055-3.768
		c-0.108-1.292-0.241-2.276-0.398-2.952c-0.024-0.084-0.016-0.166,0.027-0.245c0.042-0.079,0.108-0.127,0.199-0.145
		s0.175-0.006,0.254,0.036c0.078,0.042,0.123,0.112,0.136,0.208c0.181,0.701,0.326,1.715,0.435,3.043
		c0.108,1.329,0.127,2.615,0.055,3.858c-0.109,1.521-0.356,2.735-0.743,3.641c-0.495,1.159-1.214,1.757-2.155,1.793
		c-1.051,0.048-1.823-0.628-2.318-2.029c-0.097-0.277-0.182-0.567-0.254-0.869c-0.193,0.519-0.404,0.978-0.634,1.376
		c-0.773,1.353-1.643,1.805-2.608,1.358c-0.543-0.241-0.979-0.821-1.304-1.739c-0.254-0.712-0.441-1.63-0.562-2.753
		C7.192,61.83,7.138,60.942,7.126,60.036z M7.796,58.769c0.362-0.423,0.658-0.96,0.888-1.612c0.217-0.616,0.308-1.135,0.271-1.558
		c-0.012-0.169-0.042-0.29-0.091-0.362C8.828,55.2,8.786,55.188,8.737,55.2c-0.289,0.024-0.507,0.338-0.651,0.942
		c-0.049,0.169-0.121,0.707-0.218,1.612C7.832,58.02,7.808,58.358,7.796,58.769z"/>
	<path fill="#9FA1A6" d="M19.877,66.195c0.387,0.387,0.894,0.622,1.521,0.707c0.471,0.061,0.942,0.018,1.413-0.127
		s0.875-0.374,1.214-0.688c0.06-0.06,0.136-0.09,0.226-0.09c0.091,0,0.166,0.033,0.227,0.1s0.091,0.145,0.091,0.235
		c0,0.091-0.036,0.166-0.108,0.227c-0.398,0.387-0.882,0.664-1.449,0.833s-1.136,0.217-1.703,0.145
		c-0.592-0.072-1.123-0.278-1.594-0.616c-0.471-0.35-0.809-0.821-1.014-1.413c-0.278-0.857-0.378-1.796-0.3-2.816
		c0.079-1.021,0.312-1.929,0.698-2.726c0.217-0.447,0.471-0.809,0.761-1.087c0.313-0.29,0.621-0.435,0.923-0.435
		c0.375,0,0.652,0.199,0.834,0.598c0.145,0.351,0.199,0.833,0.163,1.449C21.67,62.131,21.036,64.033,19.877,66.195z M19.442,65.597
		c1.026-1.932,1.588-3.647,1.685-5.144c0.036-0.519,0-0.899-0.108-1.141c-0.073-0.145-0.151-0.218-0.236-0.218
		c-0.133,0-0.296,0.085-0.488,0.254c-0.229,0.217-0.435,0.519-0.616,0.906c-0.351,0.724-0.562,1.555-0.634,2.49
		c-0.072,0.936,0.018,1.784,0.271,2.545C19.352,65.398,19.394,65.5,19.442,65.597z"/>
	<path fill="#9FA1A6" d="M28.082,67.101c-0.29,0.145-0.61,0.253-0.96,0.326c-0.918,0.181-1.69,0.03-2.318-0.453v0.127
		c0,0.084-0.033,0.16-0.1,0.226c-0.066,0.066-0.143,0.1-0.227,0.1c-0.085,0-0.16-0.033-0.227-0.1c-0.066-0.066-0.1-0.142-0.1-0.226
		v-0.236c-0.012-0.169-0.072-0.706-0.181-1.612c-0.109-0.906-0.182-1.521-0.218-1.848s-0.085-0.839-0.145-1.54
		c-0.061-0.7-0.103-1.322-0.127-1.866c-0.024-0.495-0.03-1.038-0.019-1.63c0.013-1.039,0.03-1.642,0.055-1.812
		c0.061-0.447,0.156-0.791,0.29-1.032c0.084-0.169,0.199-0.296,0.344-0.38c0.169-0.097,0.356-0.115,0.562-0.055
		c0.133,0.037,0.235,0.127,0.308,0.272c0.049,0.084,0.091,0.199,0.127,0.344c0.061,0.193,0.115,0.471,0.163,0.833
		c0.072,0.52,0.115,0.972,0.127,1.358c0.024,0.568,0.019,1.177-0.019,1.83c0.87-0.906,1.728-1.226,2.572-0.96
		c0.447,0.145,0.833,0.441,1.159,0.887c0.326,0.447,0.573,0.979,0.743,1.594c0.362,1.304,0.338,2.542-0.072,3.713
		c-0.254,0.713-0.629,1.286-1.123,1.721c0.277,0.109,0.615,0.181,1.014,0.218c0.41,0.036,0.761-0.009,1.051-0.136
		c0.29-0.126,0.586-0.341,0.888-0.643c0.061-0.073,0.136-0.109,0.227-0.109c0.09,0,0.169,0.03,0.235,0.09
		c0.066,0.061,0.1,0.136,0.1,0.227c0,0.091-0.03,0.166-0.091,0.227c-0.362,0.387-0.733,0.658-1.114,0.815
		c-0.38,0.157-0.824,0.217-1.331,0.181C29.023,67.505,28.492,67.354,28.082,67.101z M24.478,55.708
		c-0.013-0.012-0.019-0.024-0.019-0.037l-0.018,0.019c0,0.012,0.006,0.024,0.018,0.036c-0.024,0.024-0.054,0.061-0.09,0.108
		c-0.085,0.169-0.151,0.441-0.199,0.815c-0.024,0.193-0.043,0.767-0.055,1.721c-0.012,1.389,0.084,3.073,0.29,5.053l0.108-0.942
		c0.229-1.98,0.32-3.496,0.271-4.546c-0.012-0.386-0.054-0.821-0.127-1.304c-0.036-0.313-0.078-0.561-0.126-0.742
		c-0.024-0.061-0.043-0.109-0.055-0.145c0.024,0,0.042-0.012,0.055-0.036c-0.013,0.024-0.03,0.03-0.055,0.018V55.708z
		 M24.478,55.708l-0.019,0.018c0,0.012,0.006,0.018,0.019,0.018v-0.018V55.708z M27.539,66.629c-0.062-0.06-0.121-0.133-0.182-0.217
		c-0.061-0.06-0.16-0.187-0.299-0.38c-0.139-0.193-0.242-0.329-0.308-0.408c-0.066-0.078-0.176-0.178-0.326-0.299
		c-0.151-0.121-0.312-0.223-0.48-0.308c-0.229-0.097-0.435-0.124-0.615-0.082c-0.182,0.042-0.326,0.136-0.435,0.281
		c-0.024,0.302-0.049,0.586-0.073,0.851c0.036,0.061,0.079,0.121,0.127,0.181c0.531,0.52,1.22,0.695,2.065,0.525
		C27.194,66.738,27.369,66.69,27.539,66.629z M28.118,66.303c0.482-0.362,0.845-0.881,1.087-1.558
		c0.362-1.05,0.38-2.161,0.055-3.333c-0.146-0.531-0.351-0.978-0.616-1.34c-0.254-0.35-0.537-0.58-0.852-0.688
		c-0.749-0.229-1.563,0.253-2.445,1.449c-0.036,0.398-0.097,0.972-0.181,1.721c-0.109,0.93-0.176,1.534-0.199,1.811
		c0.398-0.169,0.82-0.145,1.268,0.073c0.205,0.097,0.401,0.224,0.589,0.38c0.187,0.157,0.323,0.284,0.407,0.38
		c0.085,0.097,0.205,0.248,0.362,0.453c0.157,0.206,0.247,0.326,0.271,0.362C27.949,66.123,28.033,66.219,28.118,66.303z"/>
	<path fill="#9FA1A6" d="M39.565,62.572c-0.676,0.036-1.268,0.054-1.774,0.054c-0.085,0-0.16-0.033-0.227-0.1s-0.1-0.142-0.1-0.227
		c0-0.084,0.033-0.16,0.1-0.226s0.142-0.1,0.227-0.1c0.495,0,1.068-0.012,1.721-0.037c-0.036-0.555-0.055-1.092-0.055-1.612
		c0-0.084,0.033-0.16,0.1-0.227c0.066-0.066,0.142-0.1,0.227-0.1c0.084,0,0.16,0.034,0.227,0.1c0.066,0.066,0.1,0.142,0.1,0.227
		c0,0.507,0.018,1.032,0.055,1.576c0.12-0.012,0.364-0.027,0.733-0.045c0.368-0.019,0.654-0.033,0.86-0.045
		c0.097,0,0.178,0.03,0.244,0.09c0.066,0.061,0.1,0.136,0.1,0.227c0,0.09-0.03,0.169-0.091,0.235c-0.061,0.066-0.133,0.1-0.217,0.1
		c-0.193,0.012-0.475,0.027-0.843,0.045s-0.612,0.033-0.733,0.045c0.061,0.531,0.139,1.117,0.235,1.757
		c0.012,0.097-0.009,0.181-0.063,0.253c-0.054,0.073-0.126,0.115-0.217,0.127c-0.091,0.012-0.172-0.009-0.245-0.063
		c-0.072-0.054-0.114-0.124-0.126-0.208C39.704,63.744,39.626,63.128,39.565,62.572z"/>
	<path fill="#9FA1A6" d="M52.443,61.558c0.109,0.012,0.537,0.019,1.286,0.019c0.241,0,0.501-0.006,0.779-0.019h0.145h0.108h0.055
		h0.019h0.018h0.019h0.018h0.019c0.06,0.012,0.114,0.037,0.163,0.073c0.06,0.061,0.103,0.139,0.127,0.235
		c0.023,0.048,0.042,0.115,0.054,0.199c0.012,0.109,0.019,0.26,0.019,0.453c0,0.157-0.013,0.58-0.036,1.268
		c-0.013,0.592-0.013,1.051,0,1.376c0.023,0.435,0.072,0.737,0.145,0.906c0.205,0.496,0.479,0.749,0.824,0.761
		c0.344,0.012,0.643-0.217,0.896-0.688c0.048-0.084,0.114-0.139,0.199-0.163c0.084-0.024,0.166-0.015,0.244,0.027
		c0.079,0.042,0.13,0.106,0.154,0.19s0.019,0.163-0.018,0.235c-0.375,0.713-0.876,1.063-1.504,1.051
		c-0.29-0.012-0.559-0.121-0.806-0.326c-0.248-0.205-0.45-0.483-0.607-0.833c-0.097-0.242-0.156-0.622-0.181-1.141
		c-0.013-0.338-0.013-0.809,0-1.413c0.024-0.676,0.036-1.087,0.036-1.231c0-0.133-0.006-0.242-0.019-0.326h-0.09
		c-0.121,0-0.242,0.006-0.362,0.018c0.023,0.048,0.036,0.097,0.036,0.145c-0.085,1.654-0.562,3-1.431,4.039
		c-0.326,0.375-0.646,0.664-0.96,0.87c-0.326,0.205-0.713,0.277-1.16,0.217c-1.063-0.133-1.829-0.96-2.3-2.481
		c-0.314-1.015-0.465-2.144-0.453-3.387c0.012-1.063,0.157-2.116,0.435-3.161c0.278-1.044,0.694-1.953,1.25-2.726
		c0.471-0.652,0.948-1.021,1.431-1.105c0.472-0.084,0.894,0.072,1.269,0.471c0.302,0.326,0.534,0.758,0.697,1.295
		s0.238,1.06,0.227,1.567c0,0.084-0.033,0.157-0.1,0.217s-0.146,0.09-0.235,0.09c-0.091,0-0.167-0.033-0.227-0.1
		c-0.061-0.066-0.091-0.147-0.091-0.245c0.012-0.435-0.052-0.878-0.19-1.331c-0.139-0.453-0.323-0.8-0.552-1.042
		c-0.218-0.229-0.447-0.326-0.688-0.29c-0.314,0.061-0.646,0.338-0.996,0.833c-0.52,0.736-0.912,1.588-1.178,2.554
		c-0.254,0.978-0.387,1.968-0.398,2.971c-0.013,1.184,0.127,2.246,0.417,3.188c0.386,1.256,0.972,1.932,1.757,2.028
		c0.302,0.037,0.564-0.015,0.787-0.154c0.224-0.139,0.475-0.377,0.752-0.715c0.772-0.917,1.201-2.131,1.286-3.641
		c0-0.037,0.006-0.073,0.019-0.109c-0.665,0-1.057-0.006-1.178-0.018c-0.097-0.012-0.172-0.054-0.227-0.127
		c-0.054-0.072-0.075-0.154-0.063-0.245c0.012-0.09,0.055-0.163,0.127-0.217C52.28,61.567,52.359,61.546,52.443,61.558z"/>
	<path fill="#9FA1A6" d="M57.533,58.424c0.41,0.821,0.996,1.413,1.757,1.775c0.205,0.097,0.44,0.163,0.706,0.199h0.019
		c0.012,0,0.03-0.002,0.055-0.009c0.023-0.006,0.042-0.009,0.054-0.009c0.097-0.024,0.175-0.024,0.235,0
		c0.157,0.036,0.26,0.133,0.309,0.29c0.036,0.169,0.012,0.368-0.073,0.598c-0.072,0.229-0.108,0.356-0.108,0.38
		c-0.193,1.171-0.266,2.107-0.217,2.808c0.072,1.063,0.398,1.841,0.978,2.336c0.277,0.242,0.58,0.29,0.906,0.145
		c0.192-0.084,0.537-0.35,1.032-0.797c0.072-0.048,0.153-0.069,0.244-0.063c0.091,0.006,0.163,0.042,0.218,0.108
		c0.054,0.067,0.078,0.145,0.072,0.236c-0.006,0.09-0.039,0.166-0.1,0.226c-0.556,0.471-0.954,0.767-1.195,0.888
		c-0.58,0.266-1.117,0.187-1.612-0.235c-0.713-0.616-1.111-1.546-1.195-2.79c-0.049-0.749,0.024-1.739,0.217-2.971
		c0.013-0.06,0.061-0.217,0.146-0.471v-0.018h-0.072c-0.339-0.048-0.641-0.139-0.906-0.272c-0.482-0.229-0.899-0.531-1.25-0.905
		c0.109,1.256,0.151,2.536,0.127,3.84s-0.09,2.445-0.199,3.423c-0.012,0.084-0.054,0.157-0.127,0.217
		c-0.072,0.06-0.15,0.084-0.235,0.072c-0.084-0.012-0.157-0.054-0.217-0.126c-0.061-0.073-0.085-0.151-0.072-0.236
		c0.145-1.014,0.217-2.433,0.217-4.256c-0.012-1.872-0.133-3.236-0.362-4.094c-0.048-0.145-0.012-0.259,0.108-0.344
		c0.024-0.037,0.061-0.066,0.109-0.091c0.084-0.036,0.169-0.042,0.253-0.018C57.437,58.286,57.497,58.34,57.533,58.424z"/>
	<path fill="#9FA1A6" d="M67.423,60.761c0.084,0.024,0.145,0.079,0.181,0.163l0.036,0.091c0.013,0.024,0.019,0.048,0.019,0.072
		v0.235c0,0.254-0.006,0.453-0.019,0.598c-0.036,0.532-0.066,0.912-0.09,1.141l-0.036,0.29c0,0.387,0.012,0.737,0.036,1.05
		c0.133,1.329,0.531,2.113,1.195,2.355c0.192,0.072,0.41,0.036,0.651-0.109c0.242-0.133,0.441-0.314,0.599-0.543
		c0.048-0.072,0.117-0.118,0.208-0.136s0.172-0.003,0.244,0.045s0.118,0.118,0.136,0.208c0.019,0.09,0.003,0.172-0.045,0.244
		c-0.218,0.314-0.489,0.562-0.815,0.743c-0.423,0.254-0.821,0.308-1.195,0.163c-0.749-0.278-1.25-0.972-1.503-2.083
		c-0.072,0.229-0.151,0.447-0.235,0.652c-0.278,0.592-0.592,1.026-0.942,1.304c-0.471,0.362-0.984,0.435-1.539,0.218
		c-0.713-0.29-1.178-1.026-1.396-2.21c-0.181-1.002-0.156-2.113,0.073-3.333c0.229-1.231,0.604-2.173,1.123-2.826
		c0.301-0.374,0.634-0.616,0.996-0.724c0.41-0.109,0.82-0.037,1.231,0.217C66.939,58.95,67.302,59.674,67.423,60.761z
		 M66.789,60.996c-0.085-0.978-0.345-1.6-0.779-1.865c-0.254-0.145-0.495-0.187-0.725-0.127c-0.229,0.061-0.453,0.224-0.67,0.489
		c-0.447,0.58-0.779,1.431-0.996,2.554c-0.218,1.123-0.235,2.149-0.055,3.079c0.169,0.954,0.501,1.528,0.996,1.721
		c0.314,0.133,0.609,0.097,0.888-0.108c0.266-0.217,0.513-0.574,0.743-1.069c0.301-0.664,0.524-1.455,0.67-2.373
		c0-0.531,0.036-1.214,0.108-2.047C66.861,61.202,66.801,61.117,66.789,60.996z"/>
	<path fill="#9FA1A6" d="M70.229,58.624c0.061,0.423,0.072,1.177,0.036,2.264c0.241-0.58,0.52-1.051,0.833-1.413
		c0.508-0.591,1.087-0.875,1.739-0.851c0.531,0.012,0.996,0.296,1.395,0.851c0.266,0.362,0.483,0.803,0.652,1.322
		c0.241,0.833,0.256,1.712,0.045,2.636s-0.582,1.718-1.113,2.382c-0.387,0.507-0.815,0.857-1.286,1.05
		c0.676,0.133,1.37,0.13,2.083-0.009c0.712-0.139,1.346-0.39,1.901-0.752c0.072-0.048,0.154-0.063,0.245-0.045
		c0.09,0.018,0.159,0.063,0.208,0.136c0.048,0.072,0.063,0.154,0.045,0.245c-0.018,0.09-0.063,0.16-0.136,0.208
		c-0.846,0.568-1.823,0.888-2.935,0.96c-1.123,0.061-2.149-0.175-3.079-0.706c0.278,0.905,0.423,1.714,0.435,2.427
		c0.013,0.447-0.042,0.87-0.163,1.268c-0.036,0.145-0.084,0.266-0.145,0.362c-0.085,0.145-0.193,0.241-0.326,0.29
		c-0.169,0.06-0.332,0.03-0.489-0.091c-0.12-0.072-0.241-0.199-0.361-0.38c-0.121-0.193-0.218-0.495-0.29-0.906
		c-0.049-0.35-0.079-0.803-0.091-1.358c-0.036-0.785-0.03-1.872,0.019-3.26c0-0.29,0.012-0.604,0.036-0.942
		c0.012-0.217,0.026-0.549,0.045-0.996s0.033-0.785,0.045-1.015c0.013-0.229,0.024-0.525,0.036-0.887
		c0.013-0.362,0.019-0.652,0.019-0.87v-0.725c0-0.253-0.003-0.471-0.009-0.652c-0.007-0.181-0.021-0.338-0.046-0.471
		c-0.012-0.084,0.01-0.163,0.063-0.235c0.055-0.072,0.127-0.115,0.218-0.127c0.091-0.012,0.172,0.009,0.244,0.063
		C70.175,58.452,70.218,58.527,70.229,58.624z M70.465,70.56c0.024-0.036,0.042-0.084,0.055-0.145
		c0.097-0.326,0.139-0.688,0.127-1.087c-0.013-0.761-0.206-1.672-0.58-2.735c-0.012,0.749-0.009,1.382,0.009,1.902
		c0.019,0.519,0.052,0.942,0.1,1.268c0.049,0.326,0.109,0.543,0.182,0.652C70.393,70.476,70.429,70.524,70.465,70.56z
		 M70.338,65.452c0.483,0.628,0.99,0.93,1.521,0.906c0.495-0.036,0.976-0.35,1.44-0.942s0.794-1.304,0.987-2.137
		c0.192-0.833,0.187-1.588-0.019-2.264c-0.157-0.471-0.344-0.857-0.562-1.16c-0.266-0.374-0.556-0.567-0.869-0.58
		c-0.459-0.012-0.876,0.199-1.25,0.634c-0.351,0.411-0.652,0.99-0.905,1.739c-0.278,0.833-0.459,1.733-0.544,2.699l-0.018,0.562
		L70.338,65.452z"/>
	<path fill="#9FA1A6" d="M77.855,62.536l-0.055,0.199c-0.338,1.884-0.531,3.212-0.579,3.985v0.018c0,0.036-0.007,0.066-0.019,0.09
		v0.199c0,0.085-0.033,0.157-0.1,0.217c-0.066,0.061-0.145,0.091-0.235,0.091s-0.169-0.033-0.235-0.1s-0.1-0.145-0.1-0.235
		c0-0.091,0.006-0.184,0.018-0.281c-0.036-0.483-0.1-1.202-0.19-2.156c-0.09-0.954-0.153-1.681-0.189-2.183
		c-0.036-0.501-0.076-1.231-0.118-2.191s-0.033-1.694,0.027-2.201c0.048-0.857,0.12-1.516,0.218-1.975
		c0.096-0.507,0.229-0.875,0.398-1.105c0.133-0.193,0.289-0.308,0.471-0.344c0.193-0.048,0.393,0.006,0.598,0.163
		c0.205,0.145,0.356,0.411,0.453,0.797c0.072,0.278,0.12,0.622,0.145,1.032c0.036,0.375,0.042,0.966,0.019,1.775
		c-0.013,0.592-0.061,1.208-0.146,1.848c0.254-0.41,0.544-0.743,0.869-0.996c0.326-0.253,0.73-0.41,1.214-0.471
		c0.713-0.084,1.244,0.266,1.594,1.051c0.218,0.532,0.356,1.316,0.417,2.354c0.024,0.351,0.042,0.852,0.055,1.503
		c0.012,0.652,0.018,1.015,0.018,1.087c0.024,0.882,0.091,1.449,0.199,1.703c0.254,0.507,0.652,0.725,1.195,0.652
		c0.266-0.036,0.52-0.132,0.761-0.29c0.242-0.157,0.447-0.356,0.616-0.598c0.048-0.084,0.114-0.136,0.199-0.154
		c0.084-0.018,0.166-0.002,0.244,0.045c0.079,0.048,0.127,0.115,0.146,0.199c0.018,0.085,0.003,0.163-0.046,0.236
		c-0.193,0.326-0.455,0.598-0.787,0.815c-0.333,0.217-0.68,0.35-1.042,0.398c-0.387,0.048-0.749-0.012-1.087-0.181
		c-0.338-0.169-0.598-0.459-0.778-0.87c-0.157-0.326-0.248-0.972-0.272-1.938c0-0.072-0.006-0.432-0.018-1.078
		c-0.013-0.646-0.03-1.144-0.055-1.494c-0.048-0.966-0.175-1.679-0.38-2.138c-0.206-0.482-0.508-0.7-0.906-0.652
		c-0.374,0.036-0.682,0.157-0.924,0.362c-0.241,0.206-0.488,0.501-0.742,0.887l-0.29,0.58c-0.097,0.193-0.205,0.435-0.326,0.724
		L77.855,62.536z M77.348,55.2c-0.024,0.024-0.042,0.048-0.054,0.072c-0.134,0.157-0.248,0.447-0.345,0.87
		c-0.097,0.411-0.175,1.039-0.235,1.884c-0.097,1.413-0.018,3.314,0.235,5.706l0.235-1.105c0.411-1.956,0.628-3.387,0.652-4.293
		c0.012-0.761,0.006-1.334-0.018-1.721c-0.037-0.374-0.088-0.682-0.154-0.923s-0.143-0.393-0.227-0.453L77.348,55.2z"/>
	<path fill="#9FA1A6" d="M86.024,58.895c-0.012,0.157-0.045,0.514-0.1,1.069c-0.055,0.556-0.097,1.057-0.127,1.503
		s-0.058,1.014-0.081,1.703c-0.024,0.688-0.007,1.244,0.054,1.667c0.097,1.099,0.339,1.781,0.725,2.047
		c0.436,0.29,1.129,0.024,2.083-0.797c0.085-0.06,0.173-0.084,0.263-0.072c0.091,0.012,0.166,0.051,0.227,0.118
		s0.085,0.145,0.072,0.235c-0.012,0.091-0.048,0.167-0.108,0.227c-1.231,1.026-2.204,1.298-2.916,0.815
		c-0.556-0.374-0.894-1.213-1.015-2.518c-0.061-0.435-0.078-1.005-0.054-1.712c0.023-0.706,0.051-1.292,0.081-1.757
		c0.03-0.464,0.072-0.975,0.127-1.53c0.055-0.556,0.087-0.899,0.1-1.033c0-0.096,0.039-0.172,0.117-0.226
		c0.079-0.055,0.163-0.082,0.254-0.082s0.163,0.036,0.218,0.108C85.997,58.732,86.024,58.811,86.024,58.895z M85.997,56.224
		c0.066,0.066,0.1,0.142,0.1,0.227s-0.033,0.16-0.1,0.226c-0.066,0.066-0.142,0.1-0.227,0.1c-0.084,0-0.16-0.033-0.226-0.1
		c-0.066-0.066-0.1-0.142-0.1-0.226s0.033-0.16,0.1-0.227c0.065-0.066,0.142-0.1,0.226-0.1
		C85.855,56.124,85.931,56.157,85.997,56.224z"/>
	<path fill="#9FA1A6" d="M91.712,59.928c-0.205-0.543-0.441-0.857-0.706-0.942c-0.193-0.072-0.433-0.006-0.716,0.199
		c-0.284,0.206-0.553,0.513-0.806,0.924c-0.254,0.411-0.441,0.803-0.562,1.177c-0.278,0.918-0.384,1.745-0.317,2.481
		c0.066,0.737,0.241,1.35,0.525,1.838c0.283,0.489,0.637,0.854,1.06,1.096c0.313,0.169,0.64,0.256,0.978,0.262
		c0.339,0.006,0.691-0.072,1.061-0.235c0.368-0.163,0.736-0.453,1.104-0.869c0.368-0.417,0.703-0.939,1.005-1.567
		c0.036-0.084,0.097-0.142,0.182-0.172c0.084-0.03,0.166-0.027,0.244,0.009s0.133,0.097,0.163,0.181s0.027,0.163-0.009,0.235
		c-0.302,0.688-0.661,1.271-1.078,1.748c-0.416,0.477-0.849,0.818-1.295,1.023s-0.902,0.305-1.367,0.299
		c-0.465-0.006-0.903-0.124-1.313-0.353c-0.833-0.459-1.407-1.232-1.721-2.319c-0.313-1.086-0.26-2.366,0.163-3.84
		c0.133-0.435,0.341-0.884,0.625-1.35c0.283-0.464,0.601-0.83,0.951-1.096c0.458-0.35,0.905-0.446,1.34-0.29
		c0.459,0.157,0.833,0.604,1.123,1.34c0.024,0.072,0.019,0.151-0.018,0.235c-0.037,0.084-0.094,0.142-0.173,0.172
		c-0.078,0.03-0.16,0.027-0.244-0.009C91.826,60.073,91.76,60.012,91.712,59.928z"/>
	<path fill="#9FA1A6" d="M101.04,54.838c1.063,0,2.219,0.435,3.469,1.304c1.249,0.869,2.327,1.932,3.232,3.188
		c0.954,1.34,1.51,2.62,1.667,3.84c0.181,1.425-0.229,2.56-1.231,3.405c-0.157,0.121-0.314,0.235-0.472,0.344
		c0.374,0.084,0.719,0.133,1.032,0.145c0.81,0.012,1.407-0.29,1.794-0.905c0.048-0.073,0.114-0.118,0.199-0.136
		c0.084-0.018,0.166-0.002,0.244,0.045c0.078,0.048,0.127,0.115,0.146,0.199c0.018,0.085,0.002,0.169-0.046,0.254
		c-0.52,0.821-1.304,1.219-2.354,1.195c-0.531-0.012-1.172-0.139-1.92-0.38c-1.147,0.398-2.397,0.41-3.75,0.036
		c-0.459-0.121-0.803-0.235-1.032-0.344c-0.061-0.024-0.114-0.054-0.163-0.09c0,0.072-0.006,0.145-0.018,0.217
		c-0.013,0.097-0.055,0.172-0.127,0.227c-0.072,0.054-0.154,0.075-0.244,0.063c-0.091-0.012-0.163-0.054-0.218-0.126
		c-0.055-0.073-0.075-0.151-0.063-0.235c0.072-0.568,0.111-1.15,0.118-1.748c0.006-0.598-0.013-1.332-0.055-2.201
		c-0.042-0.87-0.063-1.467-0.063-1.793c-0.036-2.342-0.091-4.292-0.163-5.851c-0.085,0-0.157-0.033-0.217-0.1
		c-0.061-0.066-0.091-0.142-0.091-0.226s0.033-0.16,0.1-0.227S100.955,54.838,101.04,54.838z M106.781,66.647
		c0.362-0.145,0.683-0.338,0.96-0.58c0.834-0.688,1.172-1.63,1.015-2.826c-0.133-1.099-0.646-2.276-1.54-3.532
		c-0.761-1.051-1.651-1.962-2.671-2.735c-1.021-0.772-1.978-1.244-2.871-1.413c0.072,1.546,0.127,3.472,0.163,5.778
		c0,0.242,0.021,0.852,0.063,1.83c0.042,0.978,0.057,1.733,0.045,2.264c0.374-0.169,0.899-0.163,1.576,0.018
		c0.229,0.061,0.482,0.139,0.761,0.235l1.032,0.398c0.423,0.157,0.694,0.266,0.815,0.326L106.781,66.647z M105.677,66.938
		c-1.256-0.495-2.028-0.779-2.318-0.852c-0.713-0.181-1.172-0.139-1.377,0.127v0.018c0.048,0.061,0.157,0.127,0.326,0.199
		c0.193,0.097,0.501,0.206,0.924,0.326C104.064,66.974,104.88,67.034,105.677,66.938z"/>
	<path fill="#9FA1A6" d="M111.798,66.195c0.387,0.387,0.894,0.622,1.521,0.707c0.471,0.061,0.942,0.018,1.413-0.127
		s0.875-0.374,1.214-0.688c0.06-0.06,0.136-0.09,0.226-0.09c0.091,0,0.166,0.033,0.227,0.1s0.091,0.145,0.091,0.235
		c0,0.091-0.036,0.166-0.108,0.227c-0.398,0.387-0.882,0.664-1.449,0.833s-1.136,0.217-1.703,0.145
		c-0.592-0.072-1.123-0.278-1.594-0.616c-0.471-0.35-0.809-0.821-1.014-1.413c-0.278-0.857-0.378-1.796-0.3-2.816
		c0.079-1.021,0.312-1.929,0.698-2.726c0.217-0.447,0.471-0.809,0.761-1.087c0.313-0.29,0.621-0.435,0.923-0.435
		c0.375,0,0.652,0.199,0.834,0.598c0.145,0.351,0.199,0.833,0.163,1.449C113.591,62.131,112.957,64.033,111.798,66.195z
		 M111.363,65.597c1.026-1.932,1.588-3.647,1.685-5.144c0.036-0.519,0-0.899-0.108-1.141c-0.073-0.145-0.151-0.218-0.236-0.218
		c-0.133,0-0.296,0.085-0.488,0.254c-0.229,0.217-0.435,0.519-0.616,0.906c-0.351,0.724-0.562,1.555-0.634,2.49
		c-0.072,0.936,0.018,1.784,0.271,2.545C111.272,65.398,111.314,65.5,111.363,65.597z"/>
	<path fill="#9FA1A6" d="M115.384,66.249c0.121-0.145,0.271-0.446,0.453-0.906c0.157-0.41,0.332-0.936,0.525-1.576l0.308-1.087
		c0.108-0.386,0.211-0.77,0.308-1.15s0.163-0.631,0.199-0.752c0.061-0.241,0.17-0.591,0.326-1.05
		c0.085-0.254,0.157-0.465,0.218-0.634c0.036-0.096,0.066-0.169,0.091-0.217c0.012-0.048,0.026-0.084,0.045-0.108
		s0.039-0.042,0.063-0.055c0.048-0.06,0.108-0.096,0.181-0.108c0.206-0.036,0.381,0.061,0.525,0.29
		c0.072,0.097,0.151,0.254,0.235,0.471c0.049,0.097,0.118,0.275,0.209,0.534c0.09,0.26,0.166,0.45,0.227,0.571
		c0.036,0.108,0.253,0.574,0.651,1.395c0.351,0.688,0.604,1.274,0.761,1.757c0.531,1.461,0.508,2.566-0.072,3.315
		c1.051,0.278,1.914,0.042,2.59-0.707c0.049-0.06,0.118-0.093,0.209-0.1c0.09-0.006,0.169,0.018,0.235,0.072
		c0.066,0.055,0.103,0.127,0.108,0.218c0.006,0.09-0.021,0.172-0.081,0.244c-0.918,1.051-2.119,1.31-3.604,0.779
		c-0.278,0.181-0.586,0.29-0.924,0.326c-0.339,0.036-0.655,0.018-0.951-0.054s-0.583-0.188-0.86-0.344
		c-0.483-0.278-0.852-0.616-1.104-1.014c-0.024-0.048-0.049-0.103-0.073-0.163c-0.108,0.217-0.217,0.38-0.325,0.489
		c-0.062,0.073-0.134,0.109-0.218,0.109c-0.085,0-0.163-0.03-0.235-0.09s-0.108-0.133-0.108-0.218
		C115.294,66.4,115.324,66.322,115.384,66.249z M116.706,65.488c-0.061,0.133-0.024,0.308,0.109,0.525
		c0.181,0.302,0.471,0.562,0.869,0.779c0.567,0.326,1.099,0.429,1.594,0.308c-0.278-0.145-0.567-0.314-0.869-0.507
		c-0.036-0.024-0.182-0.133-0.435-0.326c-0.254-0.193-0.466-0.344-0.635-0.453c-0.241-0.157-0.435-0.26-0.579-0.308
		C116.736,65.495,116.718,65.488,116.706,65.488z M118.246,59.547l-0.127,0.38c-0.145,0.447-0.254,0.791-0.326,1.032
		c-0.024,0.121-0.085,0.369-0.181,0.743l-0.326,1.159l-0.309,1.105l-0.271,0.87c0.085,0,0.175,0.018,0.271,0.054
		c0.193,0.061,0.436,0.188,0.725,0.38c0.182,0.121,0.405,0.278,0.671,0.471c0.241,0.193,0.374,0.296,0.398,0.308
		c0.435,0.278,0.839,0.495,1.213,0.652l0.055-0.055c0.507-0.555,0.531-1.491,0.072-2.808c-0.169-0.458-0.416-1.026-0.742-1.702
		l-0.688-1.413c-0.049-0.121-0.121-0.314-0.218-0.58l-0.199-0.543L118.246,59.547z"/>
	<path fill="#9FA1A6" d="M124.097,58.895c-0.012,0.157-0.045,0.514-0.1,1.069c-0.055,0.556-0.097,1.057-0.127,1.503
		s-0.058,1.014-0.081,1.703c-0.024,0.688-0.007,1.244,0.054,1.667c0.097,1.099,0.339,1.781,0.725,2.047
		c0.436,0.29,1.129,0.024,2.083-0.797c0.085-0.06,0.173-0.084,0.263-0.072c0.091,0.012,0.166,0.051,0.227,0.118
		s0.085,0.145,0.072,0.235c-0.012,0.091-0.048,0.167-0.108,0.227c-1.231,1.026-2.204,1.298-2.916,0.815
		c-0.556-0.374-0.894-1.213-1.015-2.518c-0.061-0.435-0.078-1.005-0.054-1.712c0.023-0.706,0.051-1.292,0.081-1.757
		c0.03-0.464,0.072-0.975,0.127-1.53c0.055-0.556,0.087-0.899,0.1-1.033c0-0.096,0.039-0.172,0.117-0.226
		c0.079-0.055,0.163-0.082,0.254-0.082s0.163,0.036,0.218,0.108C124.069,58.732,124.097,58.811,124.097,58.895z M124.069,56.224
		c0.066,0.066,0.1,0.142,0.1,0.227s-0.033,0.16-0.1,0.226c-0.066,0.066-0.142,0.1-0.227,0.1c-0.084,0-0.16-0.033-0.226-0.1
		c-0.066-0.066-0.1-0.142-0.1-0.226s0.033-0.16,0.1-0.227c0.065-0.066,0.142-0.1,0.226-0.1
		C123.928,56.124,124.003,56.157,124.069,56.224z"/>
	<path fill="#9FA1A6" d="M130.563,64.891c-0.192,0.495-0.41,0.924-0.651,1.286c-0.362,0.556-0.755,0.93-1.178,1.123
		c-0.531,0.241-1.068,0.175-1.612-0.199c-0.761-0.519-1.135-1.449-1.123-2.79c0.013-1.147,0.284-2.288,0.815-3.423
		c0.556-1.195,1.189-1.926,1.902-2.192c0.446-0.169,0.869-0.132,1.268,0.109c0.387,0.242,0.73,0.676,1.032,1.304
		c0.072,0.157,0.048,0.29-0.072,0.398c0.072,0.024,0.133,0.066,0.181,0.127c0.013,0.024,0.024,0.054,0.037,0.09
		c0.012,0.012,0.018,0.024,0.018,0.036v0.091c0,0.108,0.006,0.528,0.019,1.259c0.012,0.73,0.021,1.371,0.026,1.92
		c0.007,0.55-0.009,1.277-0.045,2.183c0,0.181-0.006,0.356-0.018,0.525c0.374-0.169,0.989-0.398,1.847-0.688
		c0.085-0.024,0.169-0.018,0.254,0.018c0.084,0.036,0.139,0.097,0.163,0.181s0.019,0.169-0.019,0.254
		c-0.036,0.084-0.097,0.139-0.181,0.163c-0.99,0.338-1.696,0.604-2.119,0.797c-0.061,0.712-0.145,1.31-0.254,1.793
		c-0.108,0.447-0.235,0.803-0.38,1.069c-0.193,0.35-0.435,0.562-0.725,0.634c-0.351,0.072-0.652,0.03-0.906-0.127
		c-0.217-0.145-0.368-0.368-0.452-0.67c-0.133-0.507-0.079-1.002,0.163-1.485c0.302-0.592,0.947-1.135,1.938-1.63l0.036-0.851
		C130.551,65.784,130.563,65.35,130.563,64.891z M130.437,60.398c-0.242-0.519-0.508-0.863-0.797-1.032
		c-0.218-0.133-0.447-0.151-0.688-0.054c-0.556,0.205-1.075,0.821-1.558,1.847c-0.483,1.051-0.731,2.101-0.743,3.152
		c-0.012,1.111,0.266,1.86,0.833,2.246c0.351,0.242,0.683,0.29,0.996,0.145c0.302-0.133,0.599-0.423,0.888-0.87
		c0.254-0.398,0.474-0.852,0.661-1.358c0.188-0.507,0.312-0.942,0.372-1.304c0.036-0.157,0.06-0.335,0.072-0.534
		c0.012-0.199,0.018-0.429,0.018-0.688s0.006-0.462,0.019-0.607c0-0.048,0.006-0.169,0.018-0.362v-0.163v-0.019v-0.018
		c0-0.012,0.006-0.024,0.019-0.036c0-0.024,0.006-0.042,0.018-0.054c0.013-0.048,0.037-0.091,0.073-0.127
		C130.539,60.538,130.473,60.483,130.437,60.398z M130.418,67.807c-0.652,0.375-1.081,0.761-1.286,1.159
		c-0.169,0.338-0.205,0.682-0.108,1.033c0.036,0.133,0.097,0.229,0.181,0.29c0.097,0.061,0.229,0.066,0.398,0.019
		c0.097-0.012,0.193-0.109,0.29-0.29c0.121-0.217,0.224-0.52,0.309-0.906C130.285,68.749,130.357,68.314,130.418,67.807z"/>
	<path fill="#9FA1A6" d="M132.863,63.695c0-0.447-0.007-1.22-0.019-2.319c-0.012-1.099-0.018-1.95-0.018-2.554
		c0-0.084,0.033-0.16,0.1-0.227c0.066-0.066,0.142-0.1,0.227-0.1c0.084,0,0.159,0.034,0.226,0.1c0.066,0.067,0.1,0.142,0.1,0.227
		c0,0.604,0.007,1.467,0.019,2.59c0.108-0.29,0.224-0.556,0.344-0.797c0.314-0.652,0.658-1.141,1.033-1.467
		c0.482-0.435,0.983-0.585,1.503-0.453c0.725,0.169,1.189,0.767,1.395,1.793c0.121,0.543,0.175,1.503,0.163,2.88
		c-0.012,1.34,0.019,2.228,0.091,2.663c0.108,0.664,0.326,1.008,0.652,1.032c0.772,0.073,1.431-0.217,1.974-0.869
		c0.061-0.072,0.136-0.115,0.227-0.127c0.091-0.012,0.169,0.012,0.235,0.073s0.105,0.136,0.118,0.226
		c0.012,0.091-0.013,0.167-0.072,0.227c-0.688,0.845-1.54,1.22-2.555,1.123c-0.664-0.061-1.074-0.585-1.231-1.576
		c-0.072-0.471-0.103-1.401-0.09-2.79c0.023-1.268-0.024-2.174-0.146-2.717c-0.157-0.761-0.459-1.202-0.905-1.322
		c-0.302-0.073-0.61,0.036-0.924,0.326c-0.302,0.266-0.598,0.688-0.888,1.268c-0.229,0.471-0.426,0.978-0.589,1.521
		s-0.269,0.984-0.316,1.322v0.58c0,0.133,0.002,0.393,0.009,0.779c0.006,0.387,0.009,0.688,0.009,0.906
		c0,0.084-0.006,0.32-0.018,0.707v0.271v0.036v0.036v0.037c-0.013,0.012-0.019,0.024-0.019,0.036
		c-0.024,0.072-0.079,0.133-0.163,0.181c-0.097,0.048-0.193,0.048-0.29,0c-0.048-0.024-0.09-0.061-0.126-0.109
		c-0.013-0.036-0.024-0.066-0.037-0.09c-0.012-0.024-0.018-0.042-0.018-0.055v-0.108c0-0.061-0.009-0.338-0.027-0.833
		s-0.027-0.951-0.027-1.368S132.827,63.985,132.863,63.695z"/>
	<path fill="#9FA1A6" d="M141.847,66.195c0.387,0.387,0.894,0.622,1.521,0.707c0.471,0.061,0.942,0.018,1.413-0.127
		s0.875-0.374,1.214-0.688c0.06-0.06,0.136-0.09,0.226-0.09c0.091,0,0.166,0.033,0.227,0.1s0.091,0.145,0.091,0.235
		c0,0.091-0.036,0.166-0.108,0.227c-0.398,0.387-0.882,0.664-1.449,0.833s-1.136,0.217-1.703,0.145
		c-0.592-0.072-1.123-0.278-1.594-0.616c-0.471-0.35-0.809-0.821-1.014-1.413c-0.278-0.857-0.378-1.796-0.3-2.816
		c0.079-1.021,0.312-1.929,0.698-2.726c0.217-0.447,0.471-0.809,0.761-1.087c0.313-0.29,0.621-0.435,0.923-0.435
		c0.375,0,0.652,0.199,0.834,0.598c0.145,0.351,0.199,0.833,0.163,1.449C143.64,62.131,143.006,64.033,141.847,66.195z
		 M141.412,65.597c1.026-1.932,1.588-3.647,1.685-5.144c0.036-0.519,0-0.899-0.108-1.141c-0.073-0.145-0.151-0.218-0.236-0.218
		c-0.133,0-0.296,0.085-0.488,0.254c-0.229,0.217-0.435,0.519-0.616,0.906c-0.351,0.724-0.562,1.555-0.634,2.49
		c-0.072,0.936,0.018,1.784,0.271,2.545C141.321,65.398,141.363,65.5,141.412,65.597z"/>
	<path fill="#9FA1A6" d="M146.248,58.424c0.41,0.821,0.996,1.413,1.757,1.775c0.205,0.097,0.44,0.163,0.706,0.199h0.019
		c0.012,0,0.03-0.002,0.055-0.009c0.023-0.006,0.042-0.009,0.054-0.009c0.097-0.024,0.175-0.024,0.235,0
		c0.157,0.036,0.26,0.133,0.309,0.29c0.036,0.169,0.012,0.368-0.073,0.598c-0.072,0.229-0.108,0.356-0.108,0.38
		c-0.193,1.171-0.266,2.107-0.217,2.808c0.072,1.063,0.398,1.841,0.978,2.336c0.277,0.242,0.58,0.29,0.906,0.145
		c0.192-0.084,0.537-0.35,1.032-0.797c0.072-0.048,0.153-0.069,0.244-0.063c0.091,0.006,0.163,0.042,0.218,0.108
		c0.054,0.067,0.078,0.145,0.072,0.236c-0.006,0.09-0.039,0.166-0.1,0.226c-0.556,0.471-0.954,0.767-1.195,0.888
		c-0.58,0.266-1.117,0.187-1.612-0.235c-0.713-0.616-1.111-1.546-1.195-2.79c-0.049-0.749,0.024-1.739,0.217-2.971
		c0.013-0.06,0.061-0.217,0.146-0.471v-0.018h-0.072c-0.339-0.048-0.641-0.139-0.906-0.272c-0.482-0.229-0.899-0.531-1.25-0.905
		c0.109,1.256,0.151,2.536,0.127,3.84s-0.09,2.445-0.199,3.423c-0.012,0.084-0.054,0.157-0.127,0.217
		c-0.072,0.06-0.15,0.084-0.235,0.072c-0.084-0.012-0.157-0.054-0.217-0.126c-0.061-0.073-0.085-0.151-0.072-0.236
		c0.145-1.014,0.217-2.433,0.217-4.256c-0.012-1.872-0.133-3.236-0.362-4.094c-0.048-0.145-0.012-0.259,0.108-0.344
		c0.024-0.037,0.061-0.066,0.109-0.091c0.084-0.036,0.169-0.042,0.253-0.018C146.151,58.286,146.212,58.34,146.248,58.424z"/>
</g>
</svg>
